M48
;DRILL file {KiCad 4.0.7} date 06/13/18 11:14:25
;FORMAT={-:-/ absolute / inch / decimal}
FMAT,2
INCH,TZ
T1C0.030
T2C0.040
%
G90
G05
M72
T1
X4.84Y-3.335
X4.84Y-3.435
X5.065Y-2.16
X5.19Y-2.16
X5.315Y-2.16
X5.44Y-2.16
X5.565Y-2.16
X5.69Y-2.16
X5.815Y-2.16
X5.94Y-2.16
X6.065Y-2.16
X6.19Y-2.16
X6.365Y-3.335
X6.365Y-3.435
T2
X5.49Y-2.37
X5.49Y-4.59
X5.59Y-2.37
X5.59Y-4.59
X5.69Y-2.37
X5.69Y-4.59
X5.79Y-2.37
X5.79Y-4.59
T0
M30
