G04 #@! TF.FileFunction,Copper,L1,Top,Signal*
%FSLAX46Y46*%
G04 Gerber Fmt 4.6, Leading zero omitted, Abs format (unit mm)*
G04 Created by KiCad (PCBNEW 4.0.7) date 10/04/18 17:08:44*
%MOMM*%
%LPD*%
G01*
G04 APERTURE LIST*
%ADD10C,0.100000*%
%ADD11C,1.524000*%
%ADD12R,1.500000X1.300000*%
%ADD13C,0.250000*%
%ADD14C,0.254000*%
G04 APERTURE END LIST*
D10*
D11*
X117055900Y-63169800D03*
X117055900Y-67970400D03*
X117017800Y-72466200D03*
X176314100Y-73736200D03*
X176314100Y-68935600D03*
X176352200Y-64439800D03*
D12*
X112348000Y-34798000D03*
X109648000Y-34798000D03*
X132414000Y-111252000D03*
X129714000Y-111252000D03*
X105998000Y-34798000D03*
X103298000Y-34798000D03*
X124126000Y-111252000D03*
X126826000Y-111252000D03*
X159432000Y-110744000D03*
X162132000Y-110744000D03*
X182960000Y-36830000D03*
X180260000Y-36830000D03*
X189310000Y-36830000D03*
X186610000Y-36830000D03*
X167466000Y-110744000D03*
X164766000Y-110744000D03*
D11*
X122555000Y-75565000D03*
X125095000Y-75565000D03*
X127635000Y-75565000D03*
X130175000Y-75565000D03*
X132715000Y-75565000D03*
X135255000Y-75565000D03*
X137795000Y-75565000D03*
X140335000Y-75565000D03*
X142875000Y-75565000D03*
X145415000Y-75565000D03*
X147955000Y-75565000D03*
X150495000Y-75565000D03*
X153035000Y-75565000D03*
X155575000Y-75565000D03*
X158115000Y-75565000D03*
X160655000Y-75565000D03*
X163195000Y-75565000D03*
X165735000Y-75565000D03*
X168275000Y-75565000D03*
X170815000Y-75565000D03*
X122555000Y-60325000D03*
X125095000Y-60325000D03*
X127635000Y-60325000D03*
X130175000Y-60325000D03*
X132715000Y-60325000D03*
X135255000Y-60325000D03*
X137795000Y-60325000D03*
X140335000Y-60325000D03*
X142875000Y-60325000D03*
X145415000Y-60325000D03*
X147955000Y-60325000D03*
X150495000Y-60325000D03*
X153035000Y-60325000D03*
X155575000Y-60325000D03*
X158115000Y-60325000D03*
X160655000Y-60325000D03*
X163195000Y-60325000D03*
X165735000Y-60325000D03*
X168275000Y-60325000D03*
X170815000Y-60325000D03*
X150114000Y-48209200D03*
X152908000Y-48209200D03*
X155618180Y-48153320D03*
X158216600Y-48181260D03*
X149936200Y-86321900D03*
X145135600Y-86321900D03*
X140639800Y-86283800D03*
X124541280Y-119443500D03*
X124325380Y-115580160D03*
X132897880Y-119585740D03*
X133093460Y-115567460D03*
X103713280Y-42989500D03*
X103497380Y-39126160D03*
X112069880Y-43131740D03*
X112265460Y-39113460D03*
X159339280Y-119443500D03*
X159123380Y-115580160D03*
X167695880Y-119585740D03*
X167891460Y-115567460D03*
X180929280Y-44386500D03*
X180713380Y-40523160D03*
X189285880Y-44528740D03*
X189481460Y-40510460D03*
D13*
X112069880Y-43131740D02*
X114808000Y-40393620D01*
X114808000Y-37258000D02*
X112348000Y-34798000D01*
X114808000Y-40393620D02*
X114808000Y-37258000D01*
X169926000Y-41910000D02*
X169672000Y-41656000D01*
X181102000Y-77216000D02*
X181102000Y-60706000D01*
X181102000Y-60706000D02*
X181102000Y-59182000D01*
X181102000Y-59182000D02*
X181102000Y-58166000D01*
X181102000Y-58166000D02*
X181102000Y-57404000D01*
X181102000Y-57404000D02*
X181102000Y-53086000D01*
X170180000Y-42164000D02*
X169926000Y-41910000D01*
X181102000Y-53086000D02*
X170180000Y-42164000D01*
X150495000Y-75565000D02*
X153162000Y-72898000D01*
X171704000Y-72898000D02*
X176022000Y-77216000D01*
X153162000Y-72898000D02*
X171704000Y-72898000D01*
X176022000Y-77216000D02*
X181102000Y-77216000D01*
X113545620Y-41656000D02*
X112069880Y-43131740D01*
X169672000Y-41656000D02*
X113545620Y-41656000D01*
X113030000Y-100584000D02*
X120904000Y-108458000D01*
X161290000Y-44196000D02*
X127000000Y-44196000D01*
X168148000Y-51054000D02*
X161290000Y-44196000D01*
X168148000Y-51562000D02*
X168148000Y-51054000D01*
X168148000Y-53340000D02*
X168148000Y-51562000D01*
X168148000Y-60198000D02*
X168148000Y-53340000D01*
X124460000Y-44196000D02*
X113030000Y-55626000D01*
X127000000Y-44196000D02*
X124460000Y-44196000D01*
X113030000Y-100584000D02*
X113030000Y-55626000D01*
X129620000Y-108458000D02*
X132414000Y-111252000D01*
X120904000Y-108458000D02*
X129620000Y-108458000D01*
X168275000Y-60325000D02*
X168148000Y-60198000D01*
X132897880Y-119585740D02*
X135636000Y-116847620D01*
X135636000Y-116847620D02*
X135636000Y-114474000D01*
X135636000Y-114474000D02*
X132414000Y-111252000D01*
X103298000Y-34798000D02*
X101092000Y-37004000D01*
X101092000Y-40368220D02*
X103713280Y-42989500D01*
X101092000Y-37004000D02*
X101092000Y-40368220D01*
X124541280Y-119443500D02*
X121158000Y-116060220D01*
X121158000Y-114220000D02*
X124126000Y-111252000D01*
X121158000Y-116060220D02*
X121158000Y-114220000D01*
X159339280Y-119443500D02*
X156718000Y-116822220D01*
X156718000Y-113458000D02*
X159432000Y-110744000D01*
X156718000Y-116822220D02*
X156718000Y-113458000D01*
X180929280Y-44386500D02*
X178562000Y-42019220D01*
X178562000Y-38528000D02*
X180260000Y-36830000D01*
X178562000Y-42019220D02*
X178562000Y-38528000D01*
X147955000Y-75565000D02*
X151638000Y-79248000D01*
X184658000Y-49156620D02*
X189285880Y-44528740D01*
X184658000Y-79248000D02*
X184658000Y-49156620D01*
X179324000Y-79248000D02*
X184658000Y-79248000D01*
X151638000Y-79248000D02*
X179324000Y-79248000D01*
X147955000Y-75565000D02*
X147828000Y-75438000D01*
X189285880Y-44528740D02*
X191516000Y-42298620D01*
X191516000Y-42298620D02*
X191516000Y-39036000D01*
X191516000Y-39036000D02*
X189310000Y-36830000D01*
X167695880Y-119585740D02*
X171196000Y-116085620D01*
X171196000Y-114474000D02*
X167466000Y-110744000D01*
X171196000Y-116085620D02*
X171196000Y-114474000D01*
X119126000Y-71628000D02*
X119126000Y-105410000D01*
X121412000Y-71628000D02*
X119126000Y-71628000D01*
X132715000Y-60325000D02*
X121412000Y-71628000D01*
X162132000Y-105410000D02*
X167466000Y-110744000D01*
X119126000Y-105410000D02*
X162132000Y-105410000D01*
X130175000Y-60325000D02*
X127330200Y-63169800D01*
X127330200Y-63169800D02*
X117055900Y-63169800D01*
X120142000Y-72898000D02*
X120396000Y-73152000D01*
X135382000Y-72898000D02*
X120142000Y-72898000D01*
X147955000Y-60325000D02*
X135382000Y-72898000D01*
X142608300Y-78994000D02*
X149936200Y-86321900D01*
X120396000Y-78994000D02*
X142608300Y-78994000D01*
X120396000Y-73152000D02*
X120396000Y-78994000D01*
X150114000Y-48209200D02*
X150495000Y-48590200D01*
X150495000Y-48590200D02*
X150495000Y-60325000D01*
X152908000Y-48209200D02*
X153035000Y-48336200D01*
X153035000Y-48336200D02*
X153035000Y-60325000D01*
X155618180Y-48153320D02*
X160655000Y-53190140D01*
X160655000Y-53190140D02*
X160655000Y-60325000D01*
X158216600Y-48181260D02*
X163195000Y-53159660D01*
X163195000Y-53159660D02*
X163195000Y-60325000D01*
X176314100Y-73736200D02*
X170815000Y-68237100D01*
X170815000Y-68237100D02*
X170815000Y-60325000D01*
D14*
G36*
X195453000Y-125603000D02*
X97917000Y-125603000D01*
X97917000Y-114220000D01*
X120398000Y-114220000D01*
X120398000Y-116060220D01*
X120455852Y-116351059D01*
X120620599Y-116597621D01*
X123157097Y-119134119D01*
X123144523Y-119164400D01*
X123144038Y-119720161D01*
X123356270Y-120233803D01*
X123748910Y-120627129D01*
X124262180Y-120840257D01*
X124817941Y-120840742D01*
X125331583Y-120628510D01*
X125724909Y-120235870D01*
X125938037Y-119722600D01*
X125938522Y-119166839D01*
X125726290Y-118653197D01*
X125333650Y-118259871D01*
X124820380Y-118046743D01*
X124264619Y-118046258D01*
X124232225Y-118059643D01*
X122029403Y-115856821D01*
X122928138Y-115856821D01*
X123140370Y-116370463D01*
X123533010Y-116763789D01*
X124046280Y-116976917D01*
X124602041Y-116977402D01*
X125115683Y-116765170D01*
X125509009Y-116372530D01*
X125722137Y-115859260D01*
X125722150Y-115844121D01*
X131696218Y-115844121D01*
X131908450Y-116357763D01*
X132301090Y-116751089D01*
X132814360Y-116964217D01*
X133370121Y-116964702D01*
X133883763Y-116752470D01*
X134277089Y-116359830D01*
X134490217Y-115846560D01*
X134490702Y-115290799D01*
X134278470Y-114777157D01*
X133885830Y-114383831D01*
X133372560Y-114170703D01*
X132816799Y-114170218D01*
X132303157Y-114382450D01*
X131909831Y-114775090D01*
X131696703Y-115288360D01*
X131696218Y-115844121D01*
X125722150Y-115844121D01*
X125722622Y-115303499D01*
X125510390Y-114789857D01*
X125117750Y-114396531D01*
X124604480Y-114183403D01*
X124048719Y-114182918D01*
X123535077Y-114395150D01*
X123141751Y-114787790D01*
X122928623Y-115301060D01*
X122928138Y-115856821D01*
X122029403Y-115856821D01*
X121918000Y-115745418D01*
X121918000Y-114534802D01*
X123903362Y-112549440D01*
X124876000Y-112549440D01*
X125111317Y-112505162D01*
X125327441Y-112366090D01*
X125472431Y-112153890D01*
X125479191Y-112120510D01*
X125537673Y-112261699D01*
X125716302Y-112440327D01*
X125949691Y-112537000D01*
X126540250Y-112537000D01*
X126699000Y-112378250D01*
X126699000Y-111379000D01*
X126953000Y-111379000D01*
X126953000Y-112378250D01*
X127111750Y-112537000D01*
X127702309Y-112537000D01*
X127935698Y-112440327D01*
X128114327Y-112261699D01*
X128211000Y-112028310D01*
X128211000Y-111537750D01*
X128329000Y-111537750D01*
X128329000Y-112028310D01*
X128425673Y-112261699D01*
X128604302Y-112440327D01*
X128837691Y-112537000D01*
X129428250Y-112537000D01*
X129587000Y-112378250D01*
X129587000Y-111379000D01*
X128487750Y-111379000D01*
X128329000Y-111537750D01*
X128211000Y-111537750D01*
X128052250Y-111379000D01*
X126953000Y-111379000D01*
X126699000Y-111379000D01*
X126679000Y-111379000D01*
X126679000Y-111125000D01*
X126699000Y-111125000D01*
X126699000Y-110125750D01*
X126953000Y-110125750D01*
X126953000Y-111125000D01*
X128052250Y-111125000D01*
X128211000Y-110966250D01*
X128211000Y-110475690D01*
X128329000Y-110475690D01*
X128329000Y-110966250D01*
X128487750Y-111125000D01*
X129587000Y-111125000D01*
X129587000Y-110125750D01*
X129428250Y-109967000D01*
X128837691Y-109967000D01*
X128604302Y-110063673D01*
X128425673Y-110242301D01*
X128329000Y-110475690D01*
X128211000Y-110475690D01*
X128114327Y-110242301D01*
X127935698Y-110063673D01*
X127702309Y-109967000D01*
X127111750Y-109967000D01*
X126953000Y-110125750D01*
X126699000Y-110125750D01*
X126540250Y-109967000D01*
X125949691Y-109967000D01*
X125716302Y-110063673D01*
X125537673Y-110242301D01*
X125481346Y-110378287D01*
X125479162Y-110366683D01*
X125340090Y-110150559D01*
X125127890Y-110005569D01*
X124876000Y-109954560D01*
X123376000Y-109954560D01*
X123140683Y-109998838D01*
X122924559Y-110137910D01*
X122779569Y-110350110D01*
X122728560Y-110602000D01*
X122728560Y-111574638D01*
X120620599Y-113682599D01*
X120455852Y-113929161D01*
X120398000Y-114220000D01*
X97917000Y-114220000D01*
X97917000Y-55626000D01*
X112270000Y-55626000D01*
X112270000Y-100584000D01*
X112327852Y-100874839D01*
X112492599Y-101121401D01*
X120366599Y-108995401D01*
X120613161Y-109160148D01*
X120904000Y-109218000D01*
X129305198Y-109218000D01*
X130054198Y-109967000D01*
X129999750Y-109967000D01*
X129841000Y-110125750D01*
X129841000Y-111125000D01*
X129861000Y-111125000D01*
X129861000Y-111379000D01*
X129841000Y-111379000D01*
X129841000Y-112378250D01*
X129999750Y-112537000D01*
X130590309Y-112537000D01*
X130823698Y-112440327D01*
X131002327Y-112261699D01*
X131058654Y-112125713D01*
X131060838Y-112137317D01*
X131199910Y-112353441D01*
X131412110Y-112498431D01*
X131664000Y-112549440D01*
X132636638Y-112549440D01*
X134876000Y-114788802D01*
X134876000Y-116532818D01*
X133207261Y-118201557D01*
X133176980Y-118188983D01*
X132621219Y-118188498D01*
X132107577Y-118400730D01*
X131714251Y-118793370D01*
X131501123Y-119306640D01*
X131500638Y-119862401D01*
X131712870Y-120376043D01*
X132105510Y-120769369D01*
X132618780Y-120982497D01*
X133174541Y-120982982D01*
X133688183Y-120770750D01*
X134081509Y-120378110D01*
X134294637Y-119864840D01*
X134295122Y-119309079D01*
X134281737Y-119276685D01*
X136173401Y-117385021D01*
X136338148Y-117138460D01*
X136347746Y-117090206D01*
X136396000Y-116847620D01*
X136396000Y-114474000D01*
X136338148Y-114183161D01*
X136173401Y-113936599D01*
X135694802Y-113458000D01*
X155958000Y-113458000D01*
X155958000Y-116822220D01*
X156015852Y-117113059D01*
X156180599Y-117359621D01*
X157955097Y-119134119D01*
X157942523Y-119164400D01*
X157942038Y-119720161D01*
X158154270Y-120233803D01*
X158546910Y-120627129D01*
X159060180Y-120840257D01*
X159615941Y-120840742D01*
X160129583Y-120628510D01*
X160522909Y-120235870D01*
X160736037Y-119722600D01*
X160736522Y-119166839D01*
X160524290Y-118653197D01*
X160131650Y-118259871D01*
X159618380Y-118046743D01*
X159062619Y-118046258D01*
X159030225Y-118059643D01*
X157478000Y-116507418D01*
X157478000Y-115856821D01*
X157726138Y-115856821D01*
X157938370Y-116370463D01*
X158331010Y-116763789D01*
X158844280Y-116976917D01*
X159400041Y-116977402D01*
X159913683Y-116765170D01*
X160307009Y-116372530D01*
X160520137Y-115859260D01*
X160520150Y-115844121D01*
X166494218Y-115844121D01*
X166706450Y-116357763D01*
X167099090Y-116751089D01*
X167612360Y-116964217D01*
X168168121Y-116964702D01*
X168681763Y-116752470D01*
X169075089Y-116359830D01*
X169288217Y-115846560D01*
X169288702Y-115290799D01*
X169076470Y-114777157D01*
X168683830Y-114383831D01*
X168170560Y-114170703D01*
X167614799Y-114170218D01*
X167101157Y-114382450D01*
X166707831Y-114775090D01*
X166494703Y-115288360D01*
X166494218Y-115844121D01*
X160520150Y-115844121D01*
X160520622Y-115303499D01*
X160308390Y-114789857D01*
X159915750Y-114396531D01*
X159402480Y-114183403D01*
X158846719Y-114182918D01*
X158333077Y-114395150D01*
X157939751Y-114787790D01*
X157726623Y-115301060D01*
X157726138Y-115856821D01*
X157478000Y-115856821D01*
X157478000Y-113772802D01*
X159209362Y-112041440D01*
X160182000Y-112041440D01*
X160417317Y-111997162D01*
X160633441Y-111858090D01*
X160778431Y-111645890D01*
X160785191Y-111612510D01*
X160843673Y-111753699D01*
X161022302Y-111932327D01*
X161255691Y-112029000D01*
X161846250Y-112029000D01*
X162005000Y-111870250D01*
X162005000Y-110871000D01*
X162259000Y-110871000D01*
X162259000Y-111870250D01*
X162417750Y-112029000D01*
X163008309Y-112029000D01*
X163241698Y-111932327D01*
X163420327Y-111753699D01*
X163449000Y-111684476D01*
X163477673Y-111753699D01*
X163656302Y-111932327D01*
X163889691Y-112029000D01*
X164480250Y-112029000D01*
X164639000Y-111870250D01*
X164639000Y-110871000D01*
X163539750Y-110871000D01*
X163449000Y-110961750D01*
X163358250Y-110871000D01*
X162259000Y-110871000D01*
X162005000Y-110871000D01*
X161985000Y-110871000D01*
X161985000Y-110617000D01*
X162005000Y-110617000D01*
X162005000Y-109617750D01*
X162259000Y-109617750D01*
X162259000Y-110617000D01*
X163358250Y-110617000D01*
X163449000Y-110526250D01*
X163539750Y-110617000D01*
X164639000Y-110617000D01*
X164639000Y-109617750D01*
X164480250Y-109459000D01*
X163889691Y-109459000D01*
X163656302Y-109555673D01*
X163477673Y-109734301D01*
X163449000Y-109803524D01*
X163420327Y-109734301D01*
X163241698Y-109555673D01*
X163008309Y-109459000D01*
X162417750Y-109459000D01*
X162259000Y-109617750D01*
X162005000Y-109617750D01*
X161846250Y-109459000D01*
X161255691Y-109459000D01*
X161022302Y-109555673D01*
X160843673Y-109734301D01*
X160787346Y-109870287D01*
X160785162Y-109858683D01*
X160646090Y-109642559D01*
X160433890Y-109497569D01*
X160182000Y-109446560D01*
X158682000Y-109446560D01*
X158446683Y-109490838D01*
X158230559Y-109629910D01*
X158085569Y-109842110D01*
X158034560Y-110094000D01*
X158034560Y-111066638D01*
X156180599Y-112920599D01*
X156015852Y-113167161D01*
X155958000Y-113458000D01*
X135694802Y-113458000D01*
X133811440Y-111574638D01*
X133811440Y-110602000D01*
X133767162Y-110366683D01*
X133628090Y-110150559D01*
X133415890Y-110005569D01*
X133164000Y-109954560D01*
X132191362Y-109954560D01*
X130157401Y-107920599D01*
X129910839Y-107755852D01*
X129620000Y-107698000D01*
X121218802Y-107698000D01*
X119690802Y-106170000D01*
X161817198Y-106170000D01*
X165106198Y-109459000D01*
X165051750Y-109459000D01*
X164893000Y-109617750D01*
X164893000Y-110617000D01*
X164913000Y-110617000D01*
X164913000Y-110871000D01*
X164893000Y-110871000D01*
X164893000Y-111870250D01*
X165051750Y-112029000D01*
X165642309Y-112029000D01*
X165875698Y-111932327D01*
X166054327Y-111753699D01*
X166110654Y-111617713D01*
X166112838Y-111629317D01*
X166251910Y-111845441D01*
X166464110Y-111990431D01*
X166716000Y-112041440D01*
X167688638Y-112041440D01*
X170436000Y-114788802D01*
X170436000Y-115770818D01*
X168005261Y-118201557D01*
X167974980Y-118188983D01*
X167419219Y-118188498D01*
X166905577Y-118400730D01*
X166512251Y-118793370D01*
X166299123Y-119306640D01*
X166298638Y-119862401D01*
X166510870Y-120376043D01*
X166903510Y-120769369D01*
X167416780Y-120982497D01*
X167972541Y-120982982D01*
X168486183Y-120770750D01*
X168879509Y-120378110D01*
X169092637Y-119864840D01*
X169093122Y-119309079D01*
X169079737Y-119276685D01*
X171733401Y-116623021D01*
X171898148Y-116376460D01*
X171956000Y-116085620D01*
X171956000Y-114474000D01*
X171898148Y-114183161D01*
X171733401Y-113936599D01*
X168863440Y-111066638D01*
X168863440Y-110094000D01*
X168819162Y-109858683D01*
X168680090Y-109642559D01*
X168467890Y-109497569D01*
X168216000Y-109446560D01*
X167243362Y-109446560D01*
X162669401Y-104872599D01*
X162422839Y-104707852D01*
X162132000Y-104650000D01*
X119886000Y-104650000D01*
X119886000Y-87264013D01*
X139839192Y-87264013D01*
X139908657Y-87506197D01*
X140432102Y-87692944D01*
X140987168Y-87665162D01*
X141370943Y-87506197D01*
X141440408Y-87264013D01*
X140639800Y-86463405D01*
X139839192Y-87264013D01*
X119886000Y-87264013D01*
X119886000Y-86076102D01*
X139230656Y-86076102D01*
X139258438Y-86631168D01*
X139417403Y-87014943D01*
X139659587Y-87084408D01*
X140460195Y-86283800D01*
X140819405Y-86283800D01*
X141620013Y-87084408D01*
X141862197Y-87014943D01*
X142010747Y-86598561D01*
X143738358Y-86598561D01*
X143950590Y-87112203D01*
X144343230Y-87505529D01*
X144856500Y-87718657D01*
X145412261Y-87719142D01*
X145925903Y-87506910D01*
X146319229Y-87114270D01*
X146532357Y-86601000D01*
X146532842Y-86045239D01*
X146320610Y-85531597D01*
X145927970Y-85138271D01*
X145414700Y-84925143D01*
X144858939Y-84924658D01*
X144345297Y-85136890D01*
X143951971Y-85529530D01*
X143738843Y-86042800D01*
X143738358Y-86598561D01*
X142010747Y-86598561D01*
X142048944Y-86491498D01*
X142021162Y-85936432D01*
X141862197Y-85552657D01*
X141620013Y-85483192D01*
X140819405Y-86283800D01*
X140460195Y-86283800D01*
X139659587Y-85483192D01*
X139417403Y-85552657D01*
X139230656Y-86076102D01*
X119886000Y-86076102D01*
X119886000Y-85303587D01*
X139839192Y-85303587D01*
X140639800Y-86104195D01*
X141440408Y-85303587D01*
X141370943Y-85061403D01*
X140847498Y-84874656D01*
X140292432Y-84902438D01*
X139908657Y-85061403D01*
X139839192Y-85303587D01*
X119886000Y-85303587D01*
X119886000Y-79549710D01*
X120105161Y-79696148D01*
X120396000Y-79754000D01*
X142293498Y-79754000D01*
X148552017Y-86012519D01*
X148539443Y-86042800D01*
X148538958Y-86598561D01*
X148751190Y-87112203D01*
X149143830Y-87505529D01*
X149657100Y-87718657D01*
X150212861Y-87719142D01*
X150726503Y-87506910D01*
X151119829Y-87114270D01*
X151332957Y-86601000D01*
X151333442Y-86045239D01*
X151121210Y-85531597D01*
X150728570Y-85138271D01*
X150215300Y-84925143D01*
X149659539Y-84924658D01*
X149627145Y-84938043D01*
X143145701Y-78456599D01*
X142899139Y-78291852D01*
X142608300Y-78234000D01*
X121156000Y-78234000D01*
X121156000Y-73658000D01*
X135382000Y-73658000D01*
X135672839Y-73600148D01*
X135919401Y-73435401D01*
X147645619Y-61709183D01*
X147675900Y-61721757D01*
X148231661Y-61722242D01*
X148745303Y-61510010D01*
X149138629Y-61117370D01*
X149224949Y-60909488D01*
X149309990Y-61115303D01*
X149702630Y-61508629D01*
X150215900Y-61721757D01*
X150771661Y-61722242D01*
X151285303Y-61510010D01*
X151678629Y-61117370D01*
X151764949Y-60909488D01*
X151849990Y-61115303D01*
X152242630Y-61508629D01*
X152755900Y-61721757D01*
X153311661Y-61722242D01*
X153825303Y-61510010D01*
X154218629Y-61117370D01*
X154304949Y-60909488D01*
X154389990Y-61115303D01*
X154782630Y-61508629D01*
X155295900Y-61721757D01*
X155851661Y-61722242D01*
X156365303Y-61510010D01*
X156758629Y-61117370D01*
X156844949Y-60909488D01*
X156929990Y-61115303D01*
X157322630Y-61508629D01*
X157835900Y-61721757D01*
X158391661Y-61722242D01*
X158905303Y-61510010D01*
X159298629Y-61117370D01*
X159384949Y-60909488D01*
X159469990Y-61115303D01*
X159862630Y-61508629D01*
X160375900Y-61721757D01*
X160931661Y-61722242D01*
X161445303Y-61510010D01*
X161838629Y-61117370D01*
X161924949Y-60909488D01*
X162009990Y-61115303D01*
X162402630Y-61508629D01*
X162915900Y-61721757D01*
X163471661Y-61722242D01*
X163985303Y-61510010D01*
X164378629Y-61117370D01*
X164464949Y-60909488D01*
X164549990Y-61115303D01*
X164942630Y-61508629D01*
X165455900Y-61721757D01*
X166011661Y-61722242D01*
X166525303Y-61510010D01*
X166918629Y-61117370D01*
X167004949Y-60909488D01*
X167089990Y-61115303D01*
X167482630Y-61508629D01*
X167995900Y-61721757D01*
X168551661Y-61722242D01*
X169065303Y-61510010D01*
X169458629Y-61117370D01*
X169544949Y-60909488D01*
X169629990Y-61115303D01*
X170022630Y-61508629D01*
X170055000Y-61522070D01*
X170055000Y-68237100D01*
X170112852Y-68527939D01*
X170277599Y-68774501D01*
X174929917Y-73426819D01*
X174917343Y-73457100D01*
X174916858Y-74012861D01*
X175129090Y-74526503D01*
X175521730Y-74919829D01*
X176035000Y-75132957D01*
X176590761Y-75133442D01*
X177104403Y-74921210D01*
X177497729Y-74528570D01*
X177710857Y-74015300D01*
X177711342Y-73459539D01*
X177499110Y-72945897D01*
X177106470Y-72552571D01*
X176593200Y-72339443D01*
X176037439Y-72338958D01*
X176005045Y-72352343D01*
X172864963Y-69212261D01*
X174916858Y-69212261D01*
X175129090Y-69725903D01*
X175521730Y-70119229D01*
X176035000Y-70332357D01*
X176590761Y-70332842D01*
X177104403Y-70120610D01*
X177497729Y-69727970D01*
X177710857Y-69214700D01*
X177711342Y-68658939D01*
X177499110Y-68145297D01*
X177106470Y-67751971D01*
X176593200Y-67538843D01*
X176037439Y-67538358D01*
X175523797Y-67750590D01*
X175130471Y-68143230D01*
X174917343Y-68656500D01*
X174916858Y-69212261D01*
X172864963Y-69212261D01*
X171575000Y-67922298D01*
X171575000Y-65420013D01*
X175551592Y-65420013D01*
X175621057Y-65662197D01*
X176144502Y-65848944D01*
X176699568Y-65821162D01*
X177083343Y-65662197D01*
X177152808Y-65420013D01*
X176352200Y-64619405D01*
X175551592Y-65420013D01*
X171575000Y-65420013D01*
X171575000Y-64232102D01*
X174943056Y-64232102D01*
X174970838Y-64787168D01*
X175129803Y-65170943D01*
X175371987Y-65240408D01*
X176172595Y-64439800D01*
X176531805Y-64439800D01*
X177332413Y-65240408D01*
X177574597Y-65170943D01*
X177761344Y-64647498D01*
X177733562Y-64092432D01*
X177574597Y-63708657D01*
X177332413Y-63639192D01*
X176531805Y-64439800D01*
X176172595Y-64439800D01*
X175371987Y-63639192D01*
X175129803Y-63708657D01*
X174943056Y-64232102D01*
X171575000Y-64232102D01*
X171575000Y-63459587D01*
X175551592Y-63459587D01*
X176352200Y-64260195D01*
X177152808Y-63459587D01*
X177083343Y-63217403D01*
X176559898Y-63030656D01*
X176004832Y-63058438D01*
X175621057Y-63217403D01*
X175551592Y-63459587D01*
X171575000Y-63459587D01*
X171575000Y-61522531D01*
X171605303Y-61510010D01*
X171998629Y-61117370D01*
X172211757Y-60604100D01*
X172212242Y-60048339D01*
X172000010Y-59534697D01*
X171607370Y-59141371D01*
X171094100Y-58928243D01*
X170538339Y-58927758D01*
X170024697Y-59139990D01*
X169631371Y-59532630D01*
X169545051Y-59740512D01*
X169460010Y-59534697D01*
X169067370Y-59141371D01*
X168908000Y-59075195D01*
X168908000Y-51054000D01*
X168850148Y-50763161D01*
X168685401Y-50516599D01*
X161827401Y-43658599D01*
X161580839Y-43493852D01*
X161290000Y-43436000D01*
X124460000Y-43436000D01*
X124169161Y-43493852D01*
X123922599Y-43658599D01*
X112492599Y-55088599D01*
X112327852Y-55335161D01*
X112270000Y-55626000D01*
X97917000Y-55626000D01*
X97917000Y-37004000D01*
X100332000Y-37004000D01*
X100332000Y-40368220D01*
X100389852Y-40659059D01*
X100554599Y-40905621D01*
X102329097Y-42680119D01*
X102316523Y-42710400D01*
X102316038Y-43266161D01*
X102528270Y-43779803D01*
X102920910Y-44173129D01*
X103434180Y-44386257D01*
X103989941Y-44386742D01*
X104503583Y-44174510D01*
X104896909Y-43781870D01*
X105110037Y-43268600D01*
X105110522Y-42712839D01*
X104898290Y-42199197D01*
X104505650Y-41805871D01*
X103992380Y-41592743D01*
X103436619Y-41592258D01*
X103404225Y-41605643D01*
X101852000Y-40053418D01*
X101852000Y-39402821D01*
X102100138Y-39402821D01*
X102312370Y-39916463D01*
X102705010Y-40309789D01*
X103218280Y-40522917D01*
X103774041Y-40523402D01*
X104287683Y-40311170D01*
X104681009Y-39918530D01*
X104894137Y-39405260D01*
X104894150Y-39390121D01*
X110868218Y-39390121D01*
X111080450Y-39903763D01*
X111473090Y-40297089D01*
X111986360Y-40510217D01*
X112542121Y-40510702D01*
X113055763Y-40298470D01*
X113449089Y-39905830D01*
X113662217Y-39392560D01*
X113662702Y-38836799D01*
X113450470Y-38323157D01*
X113057830Y-37929831D01*
X112544560Y-37716703D01*
X111988799Y-37716218D01*
X111475157Y-37928450D01*
X111081831Y-38321090D01*
X110868703Y-38834360D01*
X110868218Y-39390121D01*
X104894150Y-39390121D01*
X104894622Y-38849499D01*
X104682390Y-38335857D01*
X104289750Y-37942531D01*
X103776480Y-37729403D01*
X103220719Y-37728918D01*
X102707077Y-37941150D01*
X102313751Y-38333790D01*
X102100623Y-38847060D01*
X102100138Y-39402821D01*
X101852000Y-39402821D01*
X101852000Y-37318802D01*
X103075362Y-36095440D01*
X104048000Y-36095440D01*
X104283317Y-36051162D01*
X104499441Y-35912090D01*
X104644431Y-35699890D01*
X104651191Y-35666510D01*
X104709673Y-35807699D01*
X104888302Y-35986327D01*
X105121691Y-36083000D01*
X105712250Y-36083000D01*
X105871000Y-35924250D01*
X105871000Y-34925000D01*
X106125000Y-34925000D01*
X106125000Y-35924250D01*
X106283750Y-36083000D01*
X106874309Y-36083000D01*
X107107698Y-35986327D01*
X107286327Y-35807699D01*
X107383000Y-35574310D01*
X107383000Y-35083750D01*
X108263000Y-35083750D01*
X108263000Y-35574310D01*
X108359673Y-35807699D01*
X108538302Y-35986327D01*
X108771691Y-36083000D01*
X109362250Y-36083000D01*
X109521000Y-35924250D01*
X109521000Y-34925000D01*
X108421750Y-34925000D01*
X108263000Y-35083750D01*
X107383000Y-35083750D01*
X107224250Y-34925000D01*
X106125000Y-34925000D01*
X105871000Y-34925000D01*
X105851000Y-34925000D01*
X105851000Y-34671000D01*
X105871000Y-34671000D01*
X105871000Y-33671750D01*
X106125000Y-33671750D01*
X106125000Y-34671000D01*
X107224250Y-34671000D01*
X107383000Y-34512250D01*
X107383000Y-34021690D01*
X108263000Y-34021690D01*
X108263000Y-34512250D01*
X108421750Y-34671000D01*
X109521000Y-34671000D01*
X109521000Y-33671750D01*
X109775000Y-33671750D01*
X109775000Y-34671000D01*
X109795000Y-34671000D01*
X109795000Y-34925000D01*
X109775000Y-34925000D01*
X109775000Y-35924250D01*
X109933750Y-36083000D01*
X110524309Y-36083000D01*
X110757698Y-35986327D01*
X110936327Y-35807699D01*
X110992654Y-35671713D01*
X110994838Y-35683317D01*
X111133910Y-35899441D01*
X111346110Y-36044431D01*
X111598000Y-36095440D01*
X112570638Y-36095440D01*
X114048000Y-37572802D01*
X114048000Y-40078818D01*
X112379261Y-41747557D01*
X112348980Y-41734983D01*
X111793219Y-41734498D01*
X111279577Y-41946730D01*
X110886251Y-42339370D01*
X110673123Y-42852640D01*
X110672638Y-43408401D01*
X110884870Y-43922043D01*
X111277510Y-44315369D01*
X111790780Y-44528497D01*
X112346541Y-44528982D01*
X112860183Y-44316750D01*
X113253509Y-43924110D01*
X113466637Y-43410840D01*
X113467122Y-42855079D01*
X113453737Y-42822685D01*
X113860422Y-42416000D01*
X169357198Y-42416000D01*
X180342000Y-53400802D01*
X180342000Y-76456000D01*
X176336802Y-76456000D01*
X172241401Y-72360599D01*
X171994839Y-72195852D01*
X171704000Y-72138000D01*
X153162000Y-72138000D01*
X152871161Y-72195852D01*
X152624599Y-72360599D01*
X150804381Y-74180817D01*
X150774100Y-74168243D01*
X150218339Y-74167758D01*
X149704697Y-74379990D01*
X149311371Y-74772630D01*
X149225051Y-74980512D01*
X149140010Y-74774697D01*
X148747370Y-74381371D01*
X148234100Y-74168243D01*
X147678339Y-74167758D01*
X147164697Y-74379990D01*
X146771371Y-74772630D01*
X146685051Y-74980512D01*
X146600010Y-74774697D01*
X146207370Y-74381371D01*
X145694100Y-74168243D01*
X145138339Y-74167758D01*
X144624697Y-74379990D01*
X144231371Y-74772630D01*
X144145051Y-74980512D01*
X144060010Y-74774697D01*
X143667370Y-74381371D01*
X143154100Y-74168243D01*
X142598339Y-74167758D01*
X142084697Y-74379990D01*
X141691371Y-74772630D01*
X141605051Y-74980512D01*
X141520010Y-74774697D01*
X141127370Y-74381371D01*
X140614100Y-74168243D01*
X140058339Y-74167758D01*
X139544697Y-74379990D01*
X139151371Y-74772630D01*
X139065051Y-74980512D01*
X138980010Y-74774697D01*
X138587370Y-74381371D01*
X138074100Y-74168243D01*
X137518339Y-74167758D01*
X137004697Y-74379990D01*
X136611371Y-74772630D01*
X136525051Y-74980512D01*
X136440010Y-74774697D01*
X136047370Y-74381371D01*
X135534100Y-74168243D01*
X134978339Y-74167758D01*
X134464697Y-74379990D01*
X134071371Y-74772630D01*
X133985051Y-74980512D01*
X133900010Y-74774697D01*
X133507370Y-74381371D01*
X132994100Y-74168243D01*
X132438339Y-74167758D01*
X131924697Y-74379990D01*
X131531371Y-74772630D01*
X131445051Y-74980512D01*
X131360010Y-74774697D01*
X130967370Y-74381371D01*
X130454100Y-74168243D01*
X129898339Y-74167758D01*
X129384697Y-74379990D01*
X128991371Y-74772630D01*
X128905051Y-74980512D01*
X128820010Y-74774697D01*
X128427370Y-74381371D01*
X127914100Y-74168243D01*
X127358339Y-74167758D01*
X126844697Y-74379990D01*
X126451371Y-74772630D01*
X126365051Y-74980512D01*
X126280010Y-74774697D01*
X125887370Y-74381371D01*
X125374100Y-74168243D01*
X124818339Y-74167758D01*
X124304697Y-74379990D01*
X123911371Y-74772630D01*
X123825051Y-74980512D01*
X123740010Y-74774697D01*
X123347370Y-74381371D01*
X122834100Y-74168243D01*
X122278339Y-74167758D01*
X121764697Y-74379990D01*
X121371371Y-74772630D01*
X121158243Y-75285900D01*
X121157758Y-75841661D01*
X121369990Y-76355303D01*
X121762630Y-76748629D01*
X122275900Y-76961757D01*
X122831661Y-76962242D01*
X123345303Y-76750010D01*
X123738629Y-76357370D01*
X123824949Y-76149488D01*
X123909990Y-76355303D01*
X124302630Y-76748629D01*
X124815900Y-76961757D01*
X125371661Y-76962242D01*
X125885303Y-76750010D01*
X126278629Y-76357370D01*
X126364949Y-76149488D01*
X126449990Y-76355303D01*
X126842630Y-76748629D01*
X127355900Y-76961757D01*
X127911661Y-76962242D01*
X128425303Y-76750010D01*
X128818629Y-76357370D01*
X128904949Y-76149488D01*
X128989990Y-76355303D01*
X129382630Y-76748629D01*
X129895900Y-76961757D01*
X130451661Y-76962242D01*
X130965303Y-76750010D01*
X131358629Y-76357370D01*
X131444949Y-76149488D01*
X131529990Y-76355303D01*
X131922630Y-76748629D01*
X132435900Y-76961757D01*
X132991661Y-76962242D01*
X133505303Y-76750010D01*
X133898629Y-76357370D01*
X133984949Y-76149488D01*
X134069990Y-76355303D01*
X134462630Y-76748629D01*
X134975900Y-76961757D01*
X135531661Y-76962242D01*
X136045303Y-76750010D01*
X136438629Y-76357370D01*
X136524949Y-76149488D01*
X136609990Y-76355303D01*
X137002630Y-76748629D01*
X137515900Y-76961757D01*
X138071661Y-76962242D01*
X138585303Y-76750010D01*
X138978629Y-76357370D01*
X139064949Y-76149488D01*
X139149990Y-76355303D01*
X139542630Y-76748629D01*
X140055900Y-76961757D01*
X140611661Y-76962242D01*
X141125303Y-76750010D01*
X141518629Y-76357370D01*
X141604949Y-76149488D01*
X141689990Y-76355303D01*
X142082630Y-76748629D01*
X142595900Y-76961757D01*
X143151661Y-76962242D01*
X143665303Y-76750010D01*
X144058629Y-76357370D01*
X144144949Y-76149488D01*
X144229990Y-76355303D01*
X144622630Y-76748629D01*
X145135900Y-76961757D01*
X145691661Y-76962242D01*
X146205303Y-76750010D01*
X146598629Y-76357370D01*
X146684949Y-76149488D01*
X146769990Y-76355303D01*
X147162630Y-76748629D01*
X147675900Y-76961757D01*
X148231661Y-76962242D01*
X148264055Y-76948857D01*
X151100599Y-79785401D01*
X151347161Y-79950148D01*
X151638000Y-80008000D01*
X184658000Y-80008000D01*
X184948839Y-79950148D01*
X185195401Y-79785401D01*
X185360148Y-79538839D01*
X185418000Y-79248000D01*
X185418000Y-49471422D01*
X188976499Y-45912923D01*
X189006780Y-45925497D01*
X189562541Y-45925982D01*
X190076183Y-45713750D01*
X190469509Y-45321110D01*
X190682637Y-44807840D01*
X190683122Y-44252079D01*
X190669737Y-44219685D01*
X192053401Y-42836021D01*
X192218148Y-42589459D01*
X192276000Y-42298620D01*
X192276000Y-39036000D01*
X192218148Y-38745161D01*
X192053401Y-38498599D01*
X190707440Y-37152638D01*
X190707440Y-36180000D01*
X190663162Y-35944683D01*
X190524090Y-35728559D01*
X190311890Y-35583569D01*
X190060000Y-35532560D01*
X188560000Y-35532560D01*
X188324683Y-35576838D01*
X188108559Y-35715910D01*
X187963569Y-35928110D01*
X187956809Y-35961490D01*
X187898327Y-35820301D01*
X187719698Y-35641673D01*
X187486309Y-35545000D01*
X186895750Y-35545000D01*
X186737000Y-35703750D01*
X186737000Y-36703000D01*
X186757000Y-36703000D01*
X186757000Y-36957000D01*
X186737000Y-36957000D01*
X186737000Y-37956250D01*
X186895750Y-38115000D01*
X187486309Y-38115000D01*
X187719698Y-38018327D01*
X187898327Y-37839699D01*
X187954654Y-37703713D01*
X187956838Y-37715317D01*
X188095910Y-37931441D01*
X188308110Y-38076431D01*
X188560000Y-38127440D01*
X189532638Y-38127440D01*
X190756000Y-39350802D01*
X190756000Y-39936837D01*
X190666470Y-39720157D01*
X190273830Y-39326831D01*
X189760560Y-39113703D01*
X189204799Y-39113218D01*
X188691157Y-39325450D01*
X188297831Y-39718090D01*
X188084703Y-40231360D01*
X188084218Y-40787121D01*
X188296450Y-41300763D01*
X188689090Y-41694089D01*
X189202360Y-41907217D01*
X189758121Y-41907702D01*
X190271763Y-41695470D01*
X190665089Y-41302830D01*
X190756000Y-41083892D01*
X190756000Y-41983818D01*
X189595261Y-43144557D01*
X189564980Y-43131983D01*
X189009219Y-43131498D01*
X188495577Y-43343730D01*
X188102251Y-43736370D01*
X187889123Y-44249640D01*
X187888638Y-44805401D01*
X187902023Y-44837795D01*
X184120599Y-48619219D01*
X183955852Y-48865781D01*
X183898000Y-49156620D01*
X183898000Y-78488000D01*
X151952802Y-78488000D01*
X150426743Y-76961941D01*
X150771661Y-76962242D01*
X151285303Y-76750010D01*
X151678629Y-76357370D01*
X151764949Y-76149488D01*
X151849990Y-76355303D01*
X152242630Y-76748629D01*
X152755900Y-76961757D01*
X153311661Y-76962242D01*
X153825303Y-76750010D01*
X154218629Y-76357370D01*
X154304949Y-76149488D01*
X154389990Y-76355303D01*
X154782630Y-76748629D01*
X155295900Y-76961757D01*
X155851661Y-76962242D01*
X156365303Y-76750010D01*
X156758629Y-76357370D01*
X156844949Y-76149488D01*
X156929990Y-76355303D01*
X157322630Y-76748629D01*
X157835900Y-76961757D01*
X158391661Y-76962242D01*
X158905303Y-76750010D01*
X159298629Y-76357370D01*
X159384949Y-76149488D01*
X159469990Y-76355303D01*
X159862630Y-76748629D01*
X160375900Y-76961757D01*
X160931661Y-76962242D01*
X161445303Y-76750010D01*
X161838629Y-76357370D01*
X161924949Y-76149488D01*
X162009990Y-76355303D01*
X162402630Y-76748629D01*
X162915900Y-76961757D01*
X163471661Y-76962242D01*
X163985303Y-76750010D01*
X164378629Y-76357370D01*
X164464949Y-76149488D01*
X164549990Y-76355303D01*
X164942630Y-76748629D01*
X165455900Y-76961757D01*
X166011661Y-76962242D01*
X166525303Y-76750010D01*
X166918629Y-76357370D01*
X167004949Y-76149488D01*
X167089990Y-76355303D01*
X167482630Y-76748629D01*
X167995900Y-76961757D01*
X168551661Y-76962242D01*
X169065303Y-76750010D01*
X169458629Y-76357370D01*
X169544949Y-76149488D01*
X169629990Y-76355303D01*
X170022630Y-76748629D01*
X170535900Y-76961757D01*
X171091661Y-76962242D01*
X171605303Y-76750010D01*
X171998629Y-76357370D01*
X172211757Y-75844100D01*
X172212242Y-75288339D01*
X172000010Y-74774697D01*
X171607370Y-74381371D01*
X171094100Y-74168243D01*
X170538339Y-74167758D01*
X170024697Y-74379990D01*
X169631371Y-74772630D01*
X169545051Y-74980512D01*
X169460010Y-74774697D01*
X169067370Y-74381371D01*
X168554100Y-74168243D01*
X167998339Y-74167758D01*
X167484697Y-74379990D01*
X167091371Y-74772630D01*
X167005051Y-74980512D01*
X166920010Y-74774697D01*
X166527370Y-74381371D01*
X166014100Y-74168243D01*
X165458339Y-74167758D01*
X164944697Y-74379990D01*
X164551371Y-74772630D01*
X164465051Y-74980512D01*
X164380010Y-74774697D01*
X163987370Y-74381371D01*
X163474100Y-74168243D01*
X162918339Y-74167758D01*
X162404697Y-74379990D01*
X162011371Y-74772630D01*
X161925051Y-74980512D01*
X161840010Y-74774697D01*
X161447370Y-74381371D01*
X160934100Y-74168243D01*
X160378339Y-74167758D01*
X159864697Y-74379990D01*
X159471371Y-74772630D01*
X159385051Y-74980512D01*
X159300010Y-74774697D01*
X158907370Y-74381371D01*
X158394100Y-74168243D01*
X157838339Y-74167758D01*
X157324697Y-74379990D01*
X156931371Y-74772630D01*
X156845051Y-74980512D01*
X156760010Y-74774697D01*
X156367370Y-74381371D01*
X155854100Y-74168243D01*
X155298339Y-74167758D01*
X154784697Y-74379990D01*
X154391371Y-74772630D01*
X154305051Y-74980512D01*
X154220010Y-74774697D01*
X153827370Y-74381371D01*
X153314100Y-74168243D01*
X152966862Y-74167940D01*
X153476802Y-73658000D01*
X171389198Y-73658000D01*
X175484599Y-77753401D01*
X175731161Y-77918148D01*
X176022000Y-77976000D01*
X181102000Y-77976000D01*
X181392839Y-77918148D01*
X181639401Y-77753401D01*
X181804148Y-77506839D01*
X181862000Y-77216000D01*
X181862000Y-53086000D01*
X181804148Y-52795161D01*
X181639401Y-52548599D01*
X170209401Y-41118599D01*
X169962839Y-40953852D01*
X169672000Y-40896000D01*
X115368801Y-40896000D01*
X115510148Y-40684460D01*
X115519746Y-40636206D01*
X115568000Y-40393620D01*
X115568000Y-38528000D01*
X177802000Y-38528000D01*
X177802000Y-42019220D01*
X177859852Y-42310059D01*
X178024599Y-42556621D01*
X179545097Y-44077119D01*
X179532523Y-44107400D01*
X179532038Y-44663161D01*
X179744270Y-45176803D01*
X180136910Y-45570129D01*
X180650180Y-45783257D01*
X181205941Y-45783742D01*
X181719583Y-45571510D01*
X182112909Y-45178870D01*
X182326037Y-44665600D01*
X182326522Y-44109839D01*
X182114290Y-43596197D01*
X181721650Y-43202871D01*
X181208380Y-42989743D01*
X180652619Y-42989258D01*
X180620225Y-43002643D01*
X179322000Y-41704418D01*
X179322000Y-40814008D01*
X179528370Y-41313463D01*
X179921010Y-41706789D01*
X180434280Y-41919917D01*
X180990041Y-41920402D01*
X181503683Y-41708170D01*
X181897009Y-41315530D01*
X182110137Y-40802260D01*
X182110622Y-40246499D01*
X181898390Y-39732857D01*
X181505750Y-39339531D01*
X180992480Y-39126403D01*
X180436719Y-39125918D01*
X179923077Y-39338150D01*
X179529751Y-39730790D01*
X179322000Y-40231111D01*
X179322000Y-38842802D01*
X180037362Y-38127440D01*
X181010000Y-38127440D01*
X181245317Y-38083162D01*
X181461441Y-37944090D01*
X181606431Y-37731890D01*
X181613191Y-37698510D01*
X181671673Y-37839699D01*
X181850302Y-38018327D01*
X182083691Y-38115000D01*
X182674250Y-38115000D01*
X182833000Y-37956250D01*
X182833000Y-36957000D01*
X183087000Y-36957000D01*
X183087000Y-37956250D01*
X183245750Y-38115000D01*
X183836309Y-38115000D01*
X184069698Y-38018327D01*
X184248327Y-37839699D01*
X184345000Y-37606310D01*
X184345000Y-37115750D01*
X185225000Y-37115750D01*
X185225000Y-37606310D01*
X185321673Y-37839699D01*
X185500302Y-38018327D01*
X185733691Y-38115000D01*
X186324250Y-38115000D01*
X186483000Y-37956250D01*
X186483000Y-36957000D01*
X185383750Y-36957000D01*
X185225000Y-37115750D01*
X184345000Y-37115750D01*
X184186250Y-36957000D01*
X183087000Y-36957000D01*
X182833000Y-36957000D01*
X182813000Y-36957000D01*
X182813000Y-36703000D01*
X182833000Y-36703000D01*
X182833000Y-35703750D01*
X183087000Y-35703750D01*
X183087000Y-36703000D01*
X184186250Y-36703000D01*
X184345000Y-36544250D01*
X184345000Y-36053690D01*
X185225000Y-36053690D01*
X185225000Y-36544250D01*
X185383750Y-36703000D01*
X186483000Y-36703000D01*
X186483000Y-35703750D01*
X186324250Y-35545000D01*
X185733691Y-35545000D01*
X185500302Y-35641673D01*
X185321673Y-35820301D01*
X185225000Y-36053690D01*
X184345000Y-36053690D01*
X184248327Y-35820301D01*
X184069698Y-35641673D01*
X183836309Y-35545000D01*
X183245750Y-35545000D01*
X183087000Y-35703750D01*
X182833000Y-35703750D01*
X182674250Y-35545000D01*
X182083691Y-35545000D01*
X181850302Y-35641673D01*
X181671673Y-35820301D01*
X181615346Y-35956287D01*
X181613162Y-35944683D01*
X181474090Y-35728559D01*
X181261890Y-35583569D01*
X181010000Y-35532560D01*
X179510000Y-35532560D01*
X179274683Y-35576838D01*
X179058559Y-35715910D01*
X178913569Y-35928110D01*
X178862560Y-36180000D01*
X178862560Y-37152638D01*
X178024599Y-37990599D01*
X177859852Y-38237161D01*
X177802000Y-38528000D01*
X115568000Y-38528000D01*
X115568000Y-37258000D01*
X115540717Y-37120839D01*
X115510148Y-36967160D01*
X115345401Y-36720599D01*
X113745440Y-35120638D01*
X113745440Y-34148000D01*
X113701162Y-33912683D01*
X113562090Y-33696559D01*
X113349890Y-33551569D01*
X113098000Y-33500560D01*
X111598000Y-33500560D01*
X111362683Y-33544838D01*
X111146559Y-33683910D01*
X111001569Y-33896110D01*
X110994809Y-33929490D01*
X110936327Y-33788301D01*
X110757698Y-33609673D01*
X110524309Y-33513000D01*
X109933750Y-33513000D01*
X109775000Y-33671750D01*
X109521000Y-33671750D01*
X109362250Y-33513000D01*
X108771691Y-33513000D01*
X108538302Y-33609673D01*
X108359673Y-33788301D01*
X108263000Y-34021690D01*
X107383000Y-34021690D01*
X107286327Y-33788301D01*
X107107698Y-33609673D01*
X106874309Y-33513000D01*
X106283750Y-33513000D01*
X106125000Y-33671750D01*
X105871000Y-33671750D01*
X105712250Y-33513000D01*
X105121691Y-33513000D01*
X104888302Y-33609673D01*
X104709673Y-33788301D01*
X104653346Y-33924287D01*
X104651162Y-33912683D01*
X104512090Y-33696559D01*
X104299890Y-33551569D01*
X104048000Y-33500560D01*
X102548000Y-33500560D01*
X102312683Y-33544838D01*
X102096559Y-33683910D01*
X101951569Y-33896110D01*
X101900560Y-34148000D01*
X101900560Y-35120638D01*
X100554599Y-36466599D01*
X100389852Y-36713161D01*
X100332000Y-37004000D01*
X97917000Y-37004000D01*
X97917000Y-26797000D01*
X195453000Y-26797000D01*
X195453000Y-125603000D01*
X195453000Y-125603000D01*
G37*
X195453000Y-125603000D02*
X97917000Y-125603000D01*
X97917000Y-114220000D01*
X120398000Y-114220000D01*
X120398000Y-116060220D01*
X120455852Y-116351059D01*
X120620599Y-116597621D01*
X123157097Y-119134119D01*
X123144523Y-119164400D01*
X123144038Y-119720161D01*
X123356270Y-120233803D01*
X123748910Y-120627129D01*
X124262180Y-120840257D01*
X124817941Y-120840742D01*
X125331583Y-120628510D01*
X125724909Y-120235870D01*
X125938037Y-119722600D01*
X125938522Y-119166839D01*
X125726290Y-118653197D01*
X125333650Y-118259871D01*
X124820380Y-118046743D01*
X124264619Y-118046258D01*
X124232225Y-118059643D01*
X122029403Y-115856821D01*
X122928138Y-115856821D01*
X123140370Y-116370463D01*
X123533010Y-116763789D01*
X124046280Y-116976917D01*
X124602041Y-116977402D01*
X125115683Y-116765170D01*
X125509009Y-116372530D01*
X125722137Y-115859260D01*
X125722150Y-115844121D01*
X131696218Y-115844121D01*
X131908450Y-116357763D01*
X132301090Y-116751089D01*
X132814360Y-116964217D01*
X133370121Y-116964702D01*
X133883763Y-116752470D01*
X134277089Y-116359830D01*
X134490217Y-115846560D01*
X134490702Y-115290799D01*
X134278470Y-114777157D01*
X133885830Y-114383831D01*
X133372560Y-114170703D01*
X132816799Y-114170218D01*
X132303157Y-114382450D01*
X131909831Y-114775090D01*
X131696703Y-115288360D01*
X131696218Y-115844121D01*
X125722150Y-115844121D01*
X125722622Y-115303499D01*
X125510390Y-114789857D01*
X125117750Y-114396531D01*
X124604480Y-114183403D01*
X124048719Y-114182918D01*
X123535077Y-114395150D01*
X123141751Y-114787790D01*
X122928623Y-115301060D01*
X122928138Y-115856821D01*
X122029403Y-115856821D01*
X121918000Y-115745418D01*
X121918000Y-114534802D01*
X123903362Y-112549440D01*
X124876000Y-112549440D01*
X125111317Y-112505162D01*
X125327441Y-112366090D01*
X125472431Y-112153890D01*
X125479191Y-112120510D01*
X125537673Y-112261699D01*
X125716302Y-112440327D01*
X125949691Y-112537000D01*
X126540250Y-112537000D01*
X126699000Y-112378250D01*
X126699000Y-111379000D01*
X126953000Y-111379000D01*
X126953000Y-112378250D01*
X127111750Y-112537000D01*
X127702309Y-112537000D01*
X127935698Y-112440327D01*
X128114327Y-112261699D01*
X128211000Y-112028310D01*
X128211000Y-111537750D01*
X128329000Y-111537750D01*
X128329000Y-112028310D01*
X128425673Y-112261699D01*
X128604302Y-112440327D01*
X128837691Y-112537000D01*
X129428250Y-112537000D01*
X129587000Y-112378250D01*
X129587000Y-111379000D01*
X128487750Y-111379000D01*
X128329000Y-111537750D01*
X128211000Y-111537750D01*
X128052250Y-111379000D01*
X126953000Y-111379000D01*
X126699000Y-111379000D01*
X126679000Y-111379000D01*
X126679000Y-111125000D01*
X126699000Y-111125000D01*
X126699000Y-110125750D01*
X126953000Y-110125750D01*
X126953000Y-111125000D01*
X128052250Y-111125000D01*
X128211000Y-110966250D01*
X128211000Y-110475690D01*
X128329000Y-110475690D01*
X128329000Y-110966250D01*
X128487750Y-111125000D01*
X129587000Y-111125000D01*
X129587000Y-110125750D01*
X129428250Y-109967000D01*
X128837691Y-109967000D01*
X128604302Y-110063673D01*
X128425673Y-110242301D01*
X128329000Y-110475690D01*
X128211000Y-110475690D01*
X128114327Y-110242301D01*
X127935698Y-110063673D01*
X127702309Y-109967000D01*
X127111750Y-109967000D01*
X126953000Y-110125750D01*
X126699000Y-110125750D01*
X126540250Y-109967000D01*
X125949691Y-109967000D01*
X125716302Y-110063673D01*
X125537673Y-110242301D01*
X125481346Y-110378287D01*
X125479162Y-110366683D01*
X125340090Y-110150559D01*
X125127890Y-110005569D01*
X124876000Y-109954560D01*
X123376000Y-109954560D01*
X123140683Y-109998838D01*
X122924559Y-110137910D01*
X122779569Y-110350110D01*
X122728560Y-110602000D01*
X122728560Y-111574638D01*
X120620599Y-113682599D01*
X120455852Y-113929161D01*
X120398000Y-114220000D01*
X97917000Y-114220000D01*
X97917000Y-55626000D01*
X112270000Y-55626000D01*
X112270000Y-100584000D01*
X112327852Y-100874839D01*
X112492599Y-101121401D01*
X120366599Y-108995401D01*
X120613161Y-109160148D01*
X120904000Y-109218000D01*
X129305198Y-109218000D01*
X130054198Y-109967000D01*
X129999750Y-109967000D01*
X129841000Y-110125750D01*
X129841000Y-111125000D01*
X129861000Y-111125000D01*
X129861000Y-111379000D01*
X129841000Y-111379000D01*
X129841000Y-112378250D01*
X129999750Y-112537000D01*
X130590309Y-112537000D01*
X130823698Y-112440327D01*
X131002327Y-112261699D01*
X131058654Y-112125713D01*
X131060838Y-112137317D01*
X131199910Y-112353441D01*
X131412110Y-112498431D01*
X131664000Y-112549440D01*
X132636638Y-112549440D01*
X134876000Y-114788802D01*
X134876000Y-116532818D01*
X133207261Y-118201557D01*
X133176980Y-118188983D01*
X132621219Y-118188498D01*
X132107577Y-118400730D01*
X131714251Y-118793370D01*
X131501123Y-119306640D01*
X131500638Y-119862401D01*
X131712870Y-120376043D01*
X132105510Y-120769369D01*
X132618780Y-120982497D01*
X133174541Y-120982982D01*
X133688183Y-120770750D01*
X134081509Y-120378110D01*
X134294637Y-119864840D01*
X134295122Y-119309079D01*
X134281737Y-119276685D01*
X136173401Y-117385021D01*
X136338148Y-117138460D01*
X136347746Y-117090206D01*
X136396000Y-116847620D01*
X136396000Y-114474000D01*
X136338148Y-114183161D01*
X136173401Y-113936599D01*
X135694802Y-113458000D01*
X155958000Y-113458000D01*
X155958000Y-116822220D01*
X156015852Y-117113059D01*
X156180599Y-117359621D01*
X157955097Y-119134119D01*
X157942523Y-119164400D01*
X157942038Y-119720161D01*
X158154270Y-120233803D01*
X158546910Y-120627129D01*
X159060180Y-120840257D01*
X159615941Y-120840742D01*
X160129583Y-120628510D01*
X160522909Y-120235870D01*
X160736037Y-119722600D01*
X160736522Y-119166839D01*
X160524290Y-118653197D01*
X160131650Y-118259871D01*
X159618380Y-118046743D01*
X159062619Y-118046258D01*
X159030225Y-118059643D01*
X157478000Y-116507418D01*
X157478000Y-115856821D01*
X157726138Y-115856821D01*
X157938370Y-116370463D01*
X158331010Y-116763789D01*
X158844280Y-116976917D01*
X159400041Y-116977402D01*
X159913683Y-116765170D01*
X160307009Y-116372530D01*
X160520137Y-115859260D01*
X160520150Y-115844121D01*
X166494218Y-115844121D01*
X166706450Y-116357763D01*
X167099090Y-116751089D01*
X167612360Y-116964217D01*
X168168121Y-116964702D01*
X168681763Y-116752470D01*
X169075089Y-116359830D01*
X169288217Y-115846560D01*
X169288702Y-115290799D01*
X169076470Y-114777157D01*
X168683830Y-114383831D01*
X168170560Y-114170703D01*
X167614799Y-114170218D01*
X167101157Y-114382450D01*
X166707831Y-114775090D01*
X166494703Y-115288360D01*
X166494218Y-115844121D01*
X160520150Y-115844121D01*
X160520622Y-115303499D01*
X160308390Y-114789857D01*
X159915750Y-114396531D01*
X159402480Y-114183403D01*
X158846719Y-114182918D01*
X158333077Y-114395150D01*
X157939751Y-114787790D01*
X157726623Y-115301060D01*
X157726138Y-115856821D01*
X157478000Y-115856821D01*
X157478000Y-113772802D01*
X159209362Y-112041440D01*
X160182000Y-112041440D01*
X160417317Y-111997162D01*
X160633441Y-111858090D01*
X160778431Y-111645890D01*
X160785191Y-111612510D01*
X160843673Y-111753699D01*
X161022302Y-111932327D01*
X161255691Y-112029000D01*
X161846250Y-112029000D01*
X162005000Y-111870250D01*
X162005000Y-110871000D01*
X162259000Y-110871000D01*
X162259000Y-111870250D01*
X162417750Y-112029000D01*
X163008309Y-112029000D01*
X163241698Y-111932327D01*
X163420327Y-111753699D01*
X163449000Y-111684476D01*
X163477673Y-111753699D01*
X163656302Y-111932327D01*
X163889691Y-112029000D01*
X164480250Y-112029000D01*
X164639000Y-111870250D01*
X164639000Y-110871000D01*
X163539750Y-110871000D01*
X163449000Y-110961750D01*
X163358250Y-110871000D01*
X162259000Y-110871000D01*
X162005000Y-110871000D01*
X161985000Y-110871000D01*
X161985000Y-110617000D01*
X162005000Y-110617000D01*
X162005000Y-109617750D01*
X162259000Y-109617750D01*
X162259000Y-110617000D01*
X163358250Y-110617000D01*
X163449000Y-110526250D01*
X163539750Y-110617000D01*
X164639000Y-110617000D01*
X164639000Y-109617750D01*
X164480250Y-109459000D01*
X163889691Y-109459000D01*
X163656302Y-109555673D01*
X163477673Y-109734301D01*
X163449000Y-109803524D01*
X163420327Y-109734301D01*
X163241698Y-109555673D01*
X163008309Y-109459000D01*
X162417750Y-109459000D01*
X162259000Y-109617750D01*
X162005000Y-109617750D01*
X161846250Y-109459000D01*
X161255691Y-109459000D01*
X161022302Y-109555673D01*
X160843673Y-109734301D01*
X160787346Y-109870287D01*
X160785162Y-109858683D01*
X160646090Y-109642559D01*
X160433890Y-109497569D01*
X160182000Y-109446560D01*
X158682000Y-109446560D01*
X158446683Y-109490838D01*
X158230559Y-109629910D01*
X158085569Y-109842110D01*
X158034560Y-110094000D01*
X158034560Y-111066638D01*
X156180599Y-112920599D01*
X156015852Y-113167161D01*
X155958000Y-113458000D01*
X135694802Y-113458000D01*
X133811440Y-111574638D01*
X133811440Y-110602000D01*
X133767162Y-110366683D01*
X133628090Y-110150559D01*
X133415890Y-110005569D01*
X133164000Y-109954560D01*
X132191362Y-109954560D01*
X130157401Y-107920599D01*
X129910839Y-107755852D01*
X129620000Y-107698000D01*
X121218802Y-107698000D01*
X119690802Y-106170000D01*
X161817198Y-106170000D01*
X165106198Y-109459000D01*
X165051750Y-109459000D01*
X164893000Y-109617750D01*
X164893000Y-110617000D01*
X164913000Y-110617000D01*
X164913000Y-110871000D01*
X164893000Y-110871000D01*
X164893000Y-111870250D01*
X165051750Y-112029000D01*
X165642309Y-112029000D01*
X165875698Y-111932327D01*
X166054327Y-111753699D01*
X166110654Y-111617713D01*
X166112838Y-111629317D01*
X166251910Y-111845441D01*
X166464110Y-111990431D01*
X166716000Y-112041440D01*
X167688638Y-112041440D01*
X170436000Y-114788802D01*
X170436000Y-115770818D01*
X168005261Y-118201557D01*
X167974980Y-118188983D01*
X167419219Y-118188498D01*
X166905577Y-118400730D01*
X166512251Y-118793370D01*
X166299123Y-119306640D01*
X166298638Y-119862401D01*
X166510870Y-120376043D01*
X166903510Y-120769369D01*
X167416780Y-120982497D01*
X167972541Y-120982982D01*
X168486183Y-120770750D01*
X168879509Y-120378110D01*
X169092637Y-119864840D01*
X169093122Y-119309079D01*
X169079737Y-119276685D01*
X171733401Y-116623021D01*
X171898148Y-116376460D01*
X171956000Y-116085620D01*
X171956000Y-114474000D01*
X171898148Y-114183161D01*
X171733401Y-113936599D01*
X168863440Y-111066638D01*
X168863440Y-110094000D01*
X168819162Y-109858683D01*
X168680090Y-109642559D01*
X168467890Y-109497569D01*
X168216000Y-109446560D01*
X167243362Y-109446560D01*
X162669401Y-104872599D01*
X162422839Y-104707852D01*
X162132000Y-104650000D01*
X119886000Y-104650000D01*
X119886000Y-87264013D01*
X139839192Y-87264013D01*
X139908657Y-87506197D01*
X140432102Y-87692944D01*
X140987168Y-87665162D01*
X141370943Y-87506197D01*
X141440408Y-87264013D01*
X140639800Y-86463405D01*
X139839192Y-87264013D01*
X119886000Y-87264013D01*
X119886000Y-86076102D01*
X139230656Y-86076102D01*
X139258438Y-86631168D01*
X139417403Y-87014943D01*
X139659587Y-87084408D01*
X140460195Y-86283800D01*
X140819405Y-86283800D01*
X141620013Y-87084408D01*
X141862197Y-87014943D01*
X142010747Y-86598561D01*
X143738358Y-86598561D01*
X143950590Y-87112203D01*
X144343230Y-87505529D01*
X144856500Y-87718657D01*
X145412261Y-87719142D01*
X145925903Y-87506910D01*
X146319229Y-87114270D01*
X146532357Y-86601000D01*
X146532842Y-86045239D01*
X146320610Y-85531597D01*
X145927970Y-85138271D01*
X145414700Y-84925143D01*
X144858939Y-84924658D01*
X144345297Y-85136890D01*
X143951971Y-85529530D01*
X143738843Y-86042800D01*
X143738358Y-86598561D01*
X142010747Y-86598561D01*
X142048944Y-86491498D01*
X142021162Y-85936432D01*
X141862197Y-85552657D01*
X141620013Y-85483192D01*
X140819405Y-86283800D01*
X140460195Y-86283800D01*
X139659587Y-85483192D01*
X139417403Y-85552657D01*
X139230656Y-86076102D01*
X119886000Y-86076102D01*
X119886000Y-85303587D01*
X139839192Y-85303587D01*
X140639800Y-86104195D01*
X141440408Y-85303587D01*
X141370943Y-85061403D01*
X140847498Y-84874656D01*
X140292432Y-84902438D01*
X139908657Y-85061403D01*
X139839192Y-85303587D01*
X119886000Y-85303587D01*
X119886000Y-79549710D01*
X120105161Y-79696148D01*
X120396000Y-79754000D01*
X142293498Y-79754000D01*
X148552017Y-86012519D01*
X148539443Y-86042800D01*
X148538958Y-86598561D01*
X148751190Y-87112203D01*
X149143830Y-87505529D01*
X149657100Y-87718657D01*
X150212861Y-87719142D01*
X150726503Y-87506910D01*
X151119829Y-87114270D01*
X151332957Y-86601000D01*
X151333442Y-86045239D01*
X151121210Y-85531597D01*
X150728570Y-85138271D01*
X150215300Y-84925143D01*
X149659539Y-84924658D01*
X149627145Y-84938043D01*
X143145701Y-78456599D01*
X142899139Y-78291852D01*
X142608300Y-78234000D01*
X121156000Y-78234000D01*
X121156000Y-73658000D01*
X135382000Y-73658000D01*
X135672839Y-73600148D01*
X135919401Y-73435401D01*
X147645619Y-61709183D01*
X147675900Y-61721757D01*
X148231661Y-61722242D01*
X148745303Y-61510010D01*
X149138629Y-61117370D01*
X149224949Y-60909488D01*
X149309990Y-61115303D01*
X149702630Y-61508629D01*
X150215900Y-61721757D01*
X150771661Y-61722242D01*
X151285303Y-61510010D01*
X151678629Y-61117370D01*
X151764949Y-60909488D01*
X151849990Y-61115303D01*
X152242630Y-61508629D01*
X152755900Y-61721757D01*
X153311661Y-61722242D01*
X153825303Y-61510010D01*
X154218629Y-61117370D01*
X154304949Y-60909488D01*
X154389990Y-61115303D01*
X154782630Y-61508629D01*
X155295900Y-61721757D01*
X155851661Y-61722242D01*
X156365303Y-61510010D01*
X156758629Y-61117370D01*
X156844949Y-60909488D01*
X156929990Y-61115303D01*
X157322630Y-61508629D01*
X157835900Y-61721757D01*
X158391661Y-61722242D01*
X158905303Y-61510010D01*
X159298629Y-61117370D01*
X159384949Y-60909488D01*
X159469990Y-61115303D01*
X159862630Y-61508629D01*
X160375900Y-61721757D01*
X160931661Y-61722242D01*
X161445303Y-61510010D01*
X161838629Y-61117370D01*
X161924949Y-60909488D01*
X162009990Y-61115303D01*
X162402630Y-61508629D01*
X162915900Y-61721757D01*
X163471661Y-61722242D01*
X163985303Y-61510010D01*
X164378629Y-61117370D01*
X164464949Y-60909488D01*
X164549990Y-61115303D01*
X164942630Y-61508629D01*
X165455900Y-61721757D01*
X166011661Y-61722242D01*
X166525303Y-61510010D01*
X166918629Y-61117370D01*
X167004949Y-60909488D01*
X167089990Y-61115303D01*
X167482630Y-61508629D01*
X167995900Y-61721757D01*
X168551661Y-61722242D01*
X169065303Y-61510010D01*
X169458629Y-61117370D01*
X169544949Y-60909488D01*
X169629990Y-61115303D01*
X170022630Y-61508629D01*
X170055000Y-61522070D01*
X170055000Y-68237100D01*
X170112852Y-68527939D01*
X170277599Y-68774501D01*
X174929917Y-73426819D01*
X174917343Y-73457100D01*
X174916858Y-74012861D01*
X175129090Y-74526503D01*
X175521730Y-74919829D01*
X176035000Y-75132957D01*
X176590761Y-75133442D01*
X177104403Y-74921210D01*
X177497729Y-74528570D01*
X177710857Y-74015300D01*
X177711342Y-73459539D01*
X177499110Y-72945897D01*
X177106470Y-72552571D01*
X176593200Y-72339443D01*
X176037439Y-72338958D01*
X176005045Y-72352343D01*
X172864963Y-69212261D01*
X174916858Y-69212261D01*
X175129090Y-69725903D01*
X175521730Y-70119229D01*
X176035000Y-70332357D01*
X176590761Y-70332842D01*
X177104403Y-70120610D01*
X177497729Y-69727970D01*
X177710857Y-69214700D01*
X177711342Y-68658939D01*
X177499110Y-68145297D01*
X177106470Y-67751971D01*
X176593200Y-67538843D01*
X176037439Y-67538358D01*
X175523797Y-67750590D01*
X175130471Y-68143230D01*
X174917343Y-68656500D01*
X174916858Y-69212261D01*
X172864963Y-69212261D01*
X171575000Y-67922298D01*
X171575000Y-65420013D01*
X175551592Y-65420013D01*
X175621057Y-65662197D01*
X176144502Y-65848944D01*
X176699568Y-65821162D01*
X177083343Y-65662197D01*
X177152808Y-65420013D01*
X176352200Y-64619405D01*
X175551592Y-65420013D01*
X171575000Y-65420013D01*
X171575000Y-64232102D01*
X174943056Y-64232102D01*
X174970838Y-64787168D01*
X175129803Y-65170943D01*
X175371987Y-65240408D01*
X176172595Y-64439800D01*
X176531805Y-64439800D01*
X177332413Y-65240408D01*
X177574597Y-65170943D01*
X177761344Y-64647498D01*
X177733562Y-64092432D01*
X177574597Y-63708657D01*
X177332413Y-63639192D01*
X176531805Y-64439800D01*
X176172595Y-64439800D01*
X175371987Y-63639192D01*
X175129803Y-63708657D01*
X174943056Y-64232102D01*
X171575000Y-64232102D01*
X171575000Y-63459587D01*
X175551592Y-63459587D01*
X176352200Y-64260195D01*
X177152808Y-63459587D01*
X177083343Y-63217403D01*
X176559898Y-63030656D01*
X176004832Y-63058438D01*
X175621057Y-63217403D01*
X175551592Y-63459587D01*
X171575000Y-63459587D01*
X171575000Y-61522531D01*
X171605303Y-61510010D01*
X171998629Y-61117370D01*
X172211757Y-60604100D01*
X172212242Y-60048339D01*
X172000010Y-59534697D01*
X171607370Y-59141371D01*
X171094100Y-58928243D01*
X170538339Y-58927758D01*
X170024697Y-59139990D01*
X169631371Y-59532630D01*
X169545051Y-59740512D01*
X169460010Y-59534697D01*
X169067370Y-59141371D01*
X168908000Y-59075195D01*
X168908000Y-51054000D01*
X168850148Y-50763161D01*
X168685401Y-50516599D01*
X161827401Y-43658599D01*
X161580839Y-43493852D01*
X161290000Y-43436000D01*
X124460000Y-43436000D01*
X124169161Y-43493852D01*
X123922599Y-43658599D01*
X112492599Y-55088599D01*
X112327852Y-55335161D01*
X112270000Y-55626000D01*
X97917000Y-55626000D01*
X97917000Y-37004000D01*
X100332000Y-37004000D01*
X100332000Y-40368220D01*
X100389852Y-40659059D01*
X100554599Y-40905621D01*
X102329097Y-42680119D01*
X102316523Y-42710400D01*
X102316038Y-43266161D01*
X102528270Y-43779803D01*
X102920910Y-44173129D01*
X103434180Y-44386257D01*
X103989941Y-44386742D01*
X104503583Y-44174510D01*
X104896909Y-43781870D01*
X105110037Y-43268600D01*
X105110522Y-42712839D01*
X104898290Y-42199197D01*
X104505650Y-41805871D01*
X103992380Y-41592743D01*
X103436619Y-41592258D01*
X103404225Y-41605643D01*
X101852000Y-40053418D01*
X101852000Y-39402821D01*
X102100138Y-39402821D01*
X102312370Y-39916463D01*
X102705010Y-40309789D01*
X103218280Y-40522917D01*
X103774041Y-40523402D01*
X104287683Y-40311170D01*
X104681009Y-39918530D01*
X104894137Y-39405260D01*
X104894150Y-39390121D01*
X110868218Y-39390121D01*
X111080450Y-39903763D01*
X111473090Y-40297089D01*
X111986360Y-40510217D01*
X112542121Y-40510702D01*
X113055763Y-40298470D01*
X113449089Y-39905830D01*
X113662217Y-39392560D01*
X113662702Y-38836799D01*
X113450470Y-38323157D01*
X113057830Y-37929831D01*
X112544560Y-37716703D01*
X111988799Y-37716218D01*
X111475157Y-37928450D01*
X111081831Y-38321090D01*
X110868703Y-38834360D01*
X110868218Y-39390121D01*
X104894150Y-39390121D01*
X104894622Y-38849499D01*
X104682390Y-38335857D01*
X104289750Y-37942531D01*
X103776480Y-37729403D01*
X103220719Y-37728918D01*
X102707077Y-37941150D01*
X102313751Y-38333790D01*
X102100623Y-38847060D01*
X102100138Y-39402821D01*
X101852000Y-39402821D01*
X101852000Y-37318802D01*
X103075362Y-36095440D01*
X104048000Y-36095440D01*
X104283317Y-36051162D01*
X104499441Y-35912090D01*
X104644431Y-35699890D01*
X104651191Y-35666510D01*
X104709673Y-35807699D01*
X104888302Y-35986327D01*
X105121691Y-36083000D01*
X105712250Y-36083000D01*
X105871000Y-35924250D01*
X105871000Y-34925000D01*
X106125000Y-34925000D01*
X106125000Y-35924250D01*
X106283750Y-36083000D01*
X106874309Y-36083000D01*
X107107698Y-35986327D01*
X107286327Y-35807699D01*
X107383000Y-35574310D01*
X107383000Y-35083750D01*
X108263000Y-35083750D01*
X108263000Y-35574310D01*
X108359673Y-35807699D01*
X108538302Y-35986327D01*
X108771691Y-36083000D01*
X109362250Y-36083000D01*
X109521000Y-35924250D01*
X109521000Y-34925000D01*
X108421750Y-34925000D01*
X108263000Y-35083750D01*
X107383000Y-35083750D01*
X107224250Y-34925000D01*
X106125000Y-34925000D01*
X105871000Y-34925000D01*
X105851000Y-34925000D01*
X105851000Y-34671000D01*
X105871000Y-34671000D01*
X105871000Y-33671750D01*
X106125000Y-33671750D01*
X106125000Y-34671000D01*
X107224250Y-34671000D01*
X107383000Y-34512250D01*
X107383000Y-34021690D01*
X108263000Y-34021690D01*
X108263000Y-34512250D01*
X108421750Y-34671000D01*
X109521000Y-34671000D01*
X109521000Y-33671750D01*
X109775000Y-33671750D01*
X109775000Y-34671000D01*
X109795000Y-34671000D01*
X109795000Y-34925000D01*
X109775000Y-34925000D01*
X109775000Y-35924250D01*
X109933750Y-36083000D01*
X110524309Y-36083000D01*
X110757698Y-35986327D01*
X110936327Y-35807699D01*
X110992654Y-35671713D01*
X110994838Y-35683317D01*
X111133910Y-35899441D01*
X111346110Y-36044431D01*
X111598000Y-36095440D01*
X112570638Y-36095440D01*
X114048000Y-37572802D01*
X114048000Y-40078818D01*
X112379261Y-41747557D01*
X112348980Y-41734983D01*
X111793219Y-41734498D01*
X111279577Y-41946730D01*
X110886251Y-42339370D01*
X110673123Y-42852640D01*
X110672638Y-43408401D01*
X110884870Y-43922043D01*
X111277510Y-44315369D01*
X111790780Y-44528497D01*
X112346541Y-44528982D01*
X112860183Y-44316750D01*
X113253509Y-43924110D01*
X113466637Y-43410840D01*
X113467122Y-42855079D01*
X113453737Y-42822685D01*
X113860422Y-42416000D01*
X169357198Y-42416000D01*
X180342000Y-53400802D01*
X180342000Y-76456000D01*
X176336802Y-76456000D01*
X172241401Y-72360599D01*
X171994839Y-72195852D01*
X171704000Y-72138000D01*
X153162000Y-72138000D01*
X152871161Y-72195852D01*
X152624599Y-72360599D01*
X150804381Y-74180817D01*
X150774100Y-74168243D01*
X150218339Y-74167758D01*
X149704697Y-74379990D01*
X149311371Y-74772630D01*
X149225051Y-74980512D01*
X149140010Y-74774697D01*
X148747370Y-74381371D01*
X148234100Y-74168243D01*
X147678339Y-74167758D01*
X147164697Y-74379990D01*
X146771371Y-74772630D01*
X146685051Y-74980512D01*
X146600010Y-74774697D01*
X146207370Y-74381371D01*
X145694100Y-74168243D01*
X145138339Y-74167758D01*
X144624697Y-74379990D01*
X144231371Y-74772630D01*
X144145051Y-74980512D01*
X144060010Y-74774697D01*
X143667370Y-74381371D01*
X143154100Y-74168243D01*
X142598339Y-74167758D01*
X142084697Y-74379990D01*
X141691371Y-74772630D01*
X141605051Y-74980512D01*
X141520010Y-74774697D01*
X141127370Y-74381371D01*
X140614100Y-74168243D01*
X140058339Y-74167758D01*
X139544697Y-74379990D01*
X139151371Y-74772630D01*
X139065051Y-74980512D01*
X138980010Y-74774697D01*
X138587370Y-74381371D01*
X138074100Y-74168243D01*
X137518339Y-74167758D01*
X137004697Y-74379990D01*
X136611371Y-74772630D01*
X136525051Y-74980512D01*
X136440010Y-74774697D01*
X136047370Y-74381371D01*
X135534100Y-74168243D01*
X134978339Y-74167758D01*
X134464697Y-74379990D01*
X134071371Y-74772630D01*
X133985051Y-74980512D01*
X133900010Y-74774697D01*
X133507370Y-74381371D01*
X132994100Y-74168243D01*
X132438339Y-74167758D01*
X131924697Y-74379990D01*
X131531371Y-74772630D01*
X131445051Y-74980512D01*
X131360010Y-74774697D01*
X130967370Y-74381371D01*
X130454100Y-74168243D01*
X129898339Y-74167758D01*
X129384697Y-74379990D01*
X128991371Y-74772630D01*
X128905051Y-74980512D01*
X128820010Y-74774697D01*
X128427370Y-74381371D01*
X127914100Y-74168243D01*
X127358339Y-74167758D01*
X126844697Y-74379990D01*
X126451371Y-74772630D01*
X126365051Y-74980512D01*
X126280010Y-74774697D01*
X125887370Y-74381371D01*
X125374100Y-74168243D01*
X124818339Y-74167758D01*
X124304697Y-74379990D01*
X123911371Y-74772630D01*
X123825051Y-74980512D01*
X123740010Y-74774697D01*
X123347370Y-74381371D01*
X122834100Y-74168243D01*
X122278339Y-74167758D01*
X121764697Y-74379990D01*
X121371371Y-74772630D01*
X121158243Y-75285900D01*
X121157758Y-75841661D01*
X121369990Y-76355303D01*
X121762630Y-76748629D01*
X122275900Y-76961757D01*
X122831661Y-76962242D01*
X123345303Y-76750010D01*
X123738629Y-76357370D01*
X123824949Y-76149488D01*
X123909990Y-76355303D01*
X124302630Y-76748629D01*
X124815900Y-76961757D01*
X125371661Y-76962242D01*
X125885303Y-76750010D01*
X126278629Y-76357370D01*
X126364949Y-76149488D01*
X126449990Y-76355303D01*
X126842630Y-76748629D01*
X127355900Y-76961757D01*
X127911661Y-76962242D01*
X128425303Y-76750010D01*
X128818629Y-76357370D01*
X128904949Y-76149488D01*
X128989990Y-76355303D01*
X129382630Y-76748629D01*
X129895900Y-76961757D01*
X130451661Y-76962242D01*
X130965303Y-76750010D01*
X131358629Y-76357370D01*
X131444949Y-76149488D01*
X131529990Y-76355303D01*
X131922630Y-76748629D01*
X132435900Y-76961757D01*
X132991661Y-76962242D01*
X133505303Y-76750010D01*
X133898629Y-76357370D01*
X133984949Y-76149488D01*
X134069990Y-76355303D01*
X134462630Y-76748629D01*
X134975900Y-76961757D01*
X135531661Y-76962242D01*
X136045303Y-76750010D01*
X136438629Y-76357370D01*
X136524949Y-76149488D01*
X136609990Y-76355303D01*
X137002630Y-76748629D01*
X137515900Y-76961757D01*
X138071661Y-76962242D01*
X138585303Y-76750010D01*
X138978629Y-76357370D01*
X139064949Y-76149488D01*
X139149990Y-76355303D01*
X139542630Y-76748629D01*
X140055900Y-76961757D01*
X140611661Y-76962242D01*
X141125303Y-76750010D01*
X141518629Y-76357370D01*
X141604949Y-76149488D01*
X141689990Y-76355303D01*
X142082630Y-76748629D01*
X142595900Y-76961757D01*
X143151661Y-76962242D01*
X143665303Y-76750010D01*
X144058629Y-76357370D01*
X144144949Y-76149488D01*
X144229990Y-76355303D01*
X144622630Y-76748629D01*
X145135900Y-76961757D01*
X145691661Y-76962242D01*
X146205303Y-76750010D01*
X146598629Y-76357370D01*
X146684949Y-76149488D01*
X146769990Y-76355303D01*
X147162630Y-76748629D01*
X147675900Y-76961757D01*
X148231661Y-76962242D01*
X148264055Y-76948857D01*
X151100599Y-79785401D01*
X151347161Y-79950148D01*
X151638000Y-80008000D01*
X184658000Y-80008000D01*
X184948839Y-79950148D01*
X185195401Y-79785401D01*
X185360148Y-79538839D01*
X185418000Y-79248000D01*
X185418000Y-49471422D01*
X188976499Y-45912923D01*
X189006780Y-45925497D01*
X189562541Y-45925982D01*
X190076183Y-45713750D01*
X190469509Y-45321110D01*
X190682637Y-44807840D01*
X190683122Y-44252079D01*
X190669737Y-44219685D01*
X192053401Y-42836021D01*
X192218148Y-42589459D01*
X192276000Y-42298620D01*
X192276000Y-39036000D01*
X192218148Y-38745161D01*
X192053401Y-38498599D01*
X190707440Y-37152638D01*
X190707440Y-36180000D01*
X190663162Y-35944683D01*
X190524090Y-35728559D01*
X190311890Y-35583569D01*
X190060000Y-35532560D01*
X188560000Y-35532560D01*
X188324683Y-35576838D01*
X188108559Y-35715910D01*
X187963569Y-35928110D01*
X187956809Y-35961490D01*
X187898327Y-35820301D01*
X187719698Y-35641673D01*
X187486309Y-35545000D01*
X186895750Y-35545000D01*
X186737000Y-35703750D01*
X186737000Y-36703000D01*
X186757000Y-36703000D01*
X186757000Y-36957000D01*
X186737000Y-36957000D01*
X186737000Y-37956250D01*
X186895750Y-38115000D01*
X187486309Y-38115000D01*
X187719698Y-38018327D01*
X187898327Y-37839699D01*
X187954654Y-37703713D01*
X187956838Y-37715317D01*
X188095910Y-37931441D01*
X188308110Y-38076431D01*
X188560000Y-38127440D01*
X189532638Y-38127440D01*
X190756000Y-39350802D01*
X190756000Y-39936837D01*
X190666470Y-39720157D01*
X190273830Y-39326831D01*
X189760560Y-39113703D01*
X189204799Y-39113218D01*
X188691157Y-39325450D01*
X188297831Y-39718090D01*
X188084703Y-40231360D01*
X188084218Y-40787121D01*
X188296450Y-41300763D01*
X188689090Y-41694089D01*
X189202360Y-41907217D01*
X189758121Y-41907702D01*
X190271763Y-41695470D01*
X190665089Y-41302830D01*
X190756000Y-41083892D01*
X190756000Y-41983818D01*
X189595261Y-43144557D01*
X189564980Y-43131983D01*
X189009219Y-43131498D01*
X188495577Y-43343730D01*
X188102251Y-43736370D01*
X187889123Y-44249640D01*
X187888638Y-44805401D01*
X187902023Y-44837795D01*
X184120599Y-48619219D01*
X183955852Y-48865781D01*
X183898000Y-49156620D01*
X183898000Y-78488000D01*
X151952802Y-78488000D01*
X150426743Y-76961941D01*
X150771661Y-76962242D01*
X151285303Y-76750010D01*
X151678629Y-76357370D01*
X151764949Y-76149488D01*
X151849990Y-76355303D01*
X152242630Y-76748629D01*
X152755900Y-76961757D01*
X153311661Y-76962242D01*
X153825303Y-76750010D01*
X154218629Y-76357370D01*
X154304949Y-76149488D01*
X154389990Y-76355303D01*
X154782630Y-76748629D01*
X155295900Y-76961757D01*
X155851661Y-76962242D01*
X156365303Y-76750010D01*
X156758629Y-76357370D01*
X156844949Y-76149488D01*
X156929990Y-76355303D01*
X157322630Y-76748629D01*
X157835900Y-76961757D01*
X158391661Y-76962242D01*
X158905303Y-76750010D01*
X159298629Y-76357370D01*
X159384949Y-76149488D01*
X159469990Y-76355303D01*
X159862630Y-76748629D01*
X160375900Y-76961757D01*
X160931661Y-76962242D01*
X161445303Y-76750010D01*
X161838629Y-76357370D01*
X161924949Y-76149488D01*
X162009990Y-76355303D01*
X162402630Y-76748629D01*
X162915900Y-76961757D01*
X163471661Y-76962242D01*
X163985303Y-76750010D01*
X164378629Y-76357370D01*
X164464949Y-76149488D01*
X164549990Y-76355303D01*
X164942630Y-76748629D01*
X165455900Y-76961757D01*
X166011661Y-76962242D01*
X166525303Y-76750010D01*
X166918629Y-76357370D01*
X167004949Y-76149488D01*
X167089990Y-76355303D01*
X167482630Y-76748629D01*
X167995900Y-76961757D01*
X168551661Y-76962242D01*
X169065303Y-76750010D01*
X169458629Y-76357370D01*
X169544949Y-76149488D01*
X169629990Y-76355303D01*
X170022630Y-76748629D01*
X170535900Y-76961757D01*
X171091661Y-76962242D01*
X171605303Y-76750010D01*
X171998629Y-76357370D01*
X172211757Y-75844100D01*
X172212242Y-75288339D01*
X172000010Y-74774697D01*
X171607370Y-74381371D01*
X171094100Y-74168243D01*
X170538339Y-74167758D01*
X170024697Y-74379990D01*
X169631371Y-74772630D01*
X169545051Y-74980512D01*
X169460010Y-74774697D01*
X169067370Y-74381371D01*
X168554100Y-74168243D01*
X167998339Y-74167758D01*
X167484697Y-74379990D01*
X167091371Y-74772630D01*
X167005051Y-74980512D01*
X166920010Y-74774697D01*
X166527370Y-74381371D01*
X166014100Y-74168243D01*
X165458339Y-74167758D01*
X164944697Y-74379990D01*
X164551371Y-74772630D01*
X164465051Y-74980512D01*
X164380010Y-74774697D01*
X163987370Y-74381371D01*
X163474100Y-74168243D01*
X162918339Y-74167758D01*
X162404697Y-74379990D01*
X162011371Y-74772630D01*
X161925051Y-74980512D01*
X161840010Y-74774697D01*
X161447370Y-74381371D01*
X160934100Y-74168243D01*
X160378339Y-74167758D01*
X159864697Y-74379990D01*
X159471371Y-74772630D01*
X159385051Y-74980512D01*
X159300010Y-74774697D01*
X158907370Y-74381371D01*
X158394100Y-74168243D01*
X157838339Y-74167758D01*
X157324697Y-74379990D01*
X156931371Y-74772630D01*
X156845051Y-74980512D01*
X156760010Y-74774697D01*
X156367370Y-74381371D01*
X155854100Y-74168243D01*
X155298339Y-74167758D01*
X154784697Y-74379990D01*
X154391371Y-74772630D01*
X154305051Y-74980512D01*
X154220010Y-74774697D01*
X153827370Y-74381371D01*
X153314100Y-74168243D01*
X152966862Y-74167940D01*
X153476802Y-73658000D01*
X171389198Y-73658000D01*
X175484599Y-77753401D01*
X175731161Y-77918148D01*
X176022000Y-77976000D01*
X181102000Y-77976000D01*
X181392839Y-77918148D01*
X181639401Y-77753401D01*
X181804148Y-77506839D01*
X181862000Y-77216000D01*
X181862000Y-53086000D01*
X181804148Y-52795161D01*
X181639401Y-52548599D01*
X170209401Y-41118599D01*
X169962839Y-40953852D01*
X169672000Y-40896000D01*
X115368801Y-40896000D01*
X115510148Y-40684460D01*
X115519746Y-40636206D01*
X115568000Y-40393620D01*
X115568000Y-38528000D01*
X177802000Y-38528000D01*
X177802000Y-42019220D01*
X177859852Y-42310059D01*
X178024599Y-42556621D01*
X179545097Y-44077119D01*
X179532523Y-44107400D01*
X179532038Y-44663161D01*
X179744270Y-45176803D01*
X180136910Y-45570129D01*
X180650180Y-45783257D01*
X181205941Y-45783742D01*
X181719583Y-45571510D01*
X182112909Y-45178870D01*
X182326037Y-44665600D01*
X182326522Y-44109839D01*
X182114290Y-43596197D01*
X181721650Y-43202871D01*
X181208380Y-42989743D01*
X180652619Y-42989258D01*
X180620225Y-43002643D01*
X179322000Y-41704418D01*
X179322000Y-40814008D01*
X179528370Y-41313463D01*
X179921010Y-41706789D01*
X180434280Y-41919917D01*
X180990041Y-41920402D01*
X181503683Y-41708170D01*
X181897009Y-41315530D01*
X182110137Y-40802260D01*
X182110622Y-40246499D01*
X181898390Y-39732857D01*
X181505750Y-39339531D01*
X180992480Y-39126403D01*
X180436719Y-39125918D01*
X179923077Y-39338150D01*
X179529751Y-39730790D01*
X179322000Y-40231111D01*
X179322000Y-38842802D01*
X180037362Y-38127440D01*
X181010000Y-38127440D01*
X181245317Y-38083162D01*
X181461441Y-37944090D01*
X181606431Y-37731890D01*
X181613191Y-37698510D01*
X181671673Y-37839699D01*
X181850302Y-38018327D01*
X182083691Y-38115000D01*
X182674250Y-38115000D01*
X182833000Y-37956250D01*
X182833000Y-36957000D01*
X183087000Y-36957000D01*
X183087000Y-37956250D01*
X183245750Y-38115000D01*
X183836309Y-38115000D01*
X184069698Y-38018327D01*
X184248327Y-37839699D01*
X184345000Y-37606310D01*
X184345000Y-37115750D01*
X185225000Y-37115750D01*
X185225000Y-37606310D01*
X185321673Y-37839699D01*
X185500302Y-38018327D01*
X185733691Y-38115000D01*
X186324250Y-38115000D01*
X186483000Y-37956250D01*
X186483000Y-36957000D01*
X185383750Y-36957000D01*
X185225000Y-37115750D01*
X184345000Y-37115750D01*
X184186250Y-36957000D01*
X183087000Y-36957000D01*
X182833000Y-36957000D01*
X182813000Y-36957000D01*
X182813000Y-36703000D01*
X182833000Y-36703000D01*
X182833000Y-35703750D01*
X183087000Y-35703750D01*
X183087000Y-36703000D01*
X184186250Y-36703000D01*
X184345000Y-36544250D01*
X184345000Y-36053690D01*
X185225000Y-36053690D01*
X185225000Y-36544250D01*
X185383750Y-36703000D01*
X186483000Y-36703000D01*
X186483000Y-35703750D01*
X186324250Y-35545000D01*
X185733691Y-35545000D01*
X185500302Y-35641673D01*
X185321673Y-35820301D01*
X185225000Y-36053690D01*
X184345000Y-36053690D01*
X184248327Y-35820301D01*
X184069698Y-35641673D01*
X183836309Y-35545000D01*
X183245750Y-35545000D01*
X183087000Y-35703750D01*
X182833000Y-35703750D01*
X182674250Y-35545000D01*
X182083691Y-35545000D01*
X181850302Y-35641673D01*
X181671673Y-35820301D01*
X181615346Y-35956287D01*
X181613162Y-35944683D01*
X181474090Y-35728559D01*
X181261890Y-35583569D01*
X181010000Y-35532560D01*
X179510000Y-35532560D01*
X179274683Y-35576838D01*
X179058559Y-35715910D01*
X178913569Y-35928110D01*
X178862560Y-36180000D01*
X178862560Y-37152638D01*
X178024599Y-37990599D01*
X177859852Y-38237161D01*
X177802000Y-38528000D01*
X115568000Y-38528000D01*
X115568000Y-37258000D01*
X115540717Y-37120839D01*
X115510148Y-36967160D01*
X115345401Y-36720599D01*
X113745440Y-35120638D01*
X113745440Y-34148000D01*
X113701162Y-33912683D01*
X113562090Y-33696559D01*
X113349890Y-33551569D01*
X113098000Y-33500560D01*
X111598000Y-33500560D01*
X111362683Y-33544838D01*
X111146559Y-33683910D01*
X111001569Y-33896110D01*
X110994809Y-33929490D01*
X110936327Y-33788301D01*
X110757698Y-33609673D01*
X110524309Y-33513000D01*
X109933750Y-33513000D01*
X109775000Y-33671750D01*
X109521000Y-33671750D01*
X109362250Y-33513000D01*
X108771691Y-33513000D01*
X108538302Y-33609673D01*
X108359673Y-33788301D01*
X108263000Y-34021690D01*
X107383000Y-34021690D01*
X107286327Y-33788301D01*
X107107698Y-33609673D01*
X106874309Y-33513000D01*
X106283750Y-33513000D01*
X106125000Y-33671750D01*
X105871000Y-33671750D01*
X105712250Y-33513000D01*
X105121691Y-33513000D01*
X104888302Y-33609673D01*
X104709673Y-33788301D01*
X104653346Y-33924287D01*
X104651162Y-33912683D01*
X104512090Y-33696559D01*
X104299890Y-33551569D01*
X104048000Y-33500560D01*
X102548000Y-33500560D01*
X102312683Y-33544838D01*
X102096559Y-33683910D01*
X101951569Y-33896110D01*
X101900560Y-34148000D01*
X101900560Y-35120638D01*
X100554599Y-36466599D01*
X100389852Y-36713161D01*
X100332000Y-37004000D01*
X97917000Y-37004000D01*
X97917000Y-26797000D01*
X195453000Y-26797000D01*
X195453000Y-125603000D01*
G36*
X167388000Y-51368802D02*
X167388000Y-59236518D01*
X167091371Y-59532630D01*
X167005051Y-59740512D01*
X166920010Y-59534697D01*
X166527370Y-59141371D01*
X166014100Y-58928243D01*
X165458339Y-58927758D01*
X164944697Y-59139990D01*
X164551371Y-59532630D01*
X164465051Y-59740512D01*
X164380010Y-59534697D01*
X163987370Y-59141371D01*
X163955000Y-59127930D01*
X163955000Y-53159660D01*
X163897148Y-52868821D01*
X163732401Y-52622259D01*
X159600783Y-48490641D01*
X159613357Y-48460360D01*
X159613842Y-47904599D01*
X159401610Y-47390957D01*
X159008970Y-46997631D01*
X158495700Y-46784503D01*
X157939939Y-46784018D01*
X157426297Y-46996250D01*
X157032971Y-47388890D01*
X156923155Y-47653356D01*
X156803190Y-47363017D01*
X156410550Y-46969691D01*
X155897280Y-46756563D01*
X155341519Y-46756078D01*
X154827877Y-46968310D01*
X154434551Y-47360950D01*
X154251358Y-47802129D01*
X154093010Y-47418897D01*
X153700370Y-47025571D01*
X153187100Y-46812443D01*
X152631339Y-46811958D01*
X152117697Y-47024190D01*
X151724371Y-47416830D01*
X151511243Y-47930100D01*
X151511241Y-47932536D01*
X151299010Y-47418897D01*
X150906370Y-47025571D01*
X150393100Y-46812443D01*
X149837339Y-46811958D01*
X149323697Y-47024190D01*
X148930371Y-47416830D01*
X148717243Y-47930100D01*
X148716758Y-48485861D01*
X148928990Y-48999503D01*
X149321630Y-49392829D01*
X149735000Y-49564475D01*
X149735000Y-59127469D01*
X149704697Y-59139990D01*
X149311371Y-59532630D01*
X149225051Y-59740512D01*
X149140010Y-59534697D01*
X148747370Y-59141371D01*
X148234100Y-58928243D01*
X147678339Y-58927758D01*
X147164697Y-59139990D01*
X146771371Y-59532630D01*
X146685051Y-59740512D01*
X146600010Y-59534697D01*
X146207370Y-59141371D01*
X145694100Y-58928243D01*
X145138339Y-58927758D01*
X144624697Y-59139990D01*
X144231371Y-59532630D01*
X144145051Y-59740512D01*
X144060010Y-59534697D01*
X143667370Y-59141371D01*
X143154100Y-58928243D01*
X142598339Y-58927758D01*
X142084697Y-59139990D01*
X141691371Y-59532630D01*
X141605051Y-59740512D01*
X141520010Y-59534697D01*
X141127370Y-59141371D01*
X140614100Y-58928243D01*
X140058339Y-58927758D01*
X139544697Y-59139990D01*
X139151371Y-59532630D01*
X139065051Y-59740512D01*
X138980010Y-59534697D01*
X138587370Y-59141371D01*
X138074100Y-58928243D01*
X137518339Y-58927758D01*
X137004697Y-59139990D01*
X136611371Y-59532630D01*
X136525051Y-59740512D01*
X136440010Y-59534697D01*
X136047370Y-59141371D01*
X135534100Y-58928243D01*
X134978339Y-58927758D01*
X134464697Y-59139990D01*
X134071371Y-59532630D01*
X133985051Y-59740512D01*
X133900010Y-59534697D01*
X133507370Y-59141371D01*
X132994100Y-58928243D01*
X132438339Y-58927758D01*
X131924697Y-59139990D01*
X131531371Y-59532630D01*
X131445051Y-59740512D01*
X131360010Y-59534697D01*
X130967370Y-59141371D01*
X130454100Y-58928243D01*
X129898339Y-58927758D01*
X129384697Y-59139990D01*
X128991371Y-59532630D01*
X128905051Y-59740512D01*
X128820010Y-59534697D01*
X128427370Y-59141371D01*
X127914100Y-58928243D01*
X127358339Y-58927758D01*
X126844697Y-59139990D01*
X126451371Y-59532630D01*
X126365051Y-59740512D01*
X126280010Y-59534697D01*
X125887370Y-59141371D01*
X125374100Y-58928243D01*
X124818339Y-58927758D01*
X124304697Y-59139990D01*
X123911371Y-59532630D01*
X123825051Y-59740512D01*
X123740010Y-59534697D01*
X123347370Y-59141371D01*
X122834100Y-58928243D01*
X122278339Y-58927758D01*
X121764697Y-59139990D01*
X121371371Y-59532630D01*
X121158243Y-60045900D01*
X121157758Y-60601661D01*
X121369990Y-61115303D01*
X121762630Y-61508629D01*
X122275900Y-61721757D01*
X122831661Y-61722242D01*
X123345303Y-61510010D01*
X123738629Y-61117370D01*
X123824949Y-60909488D01*
X123909990Y-61115303D01*
X124302630Y-61508629D01*
X124815900Y-61721757D01*
X125371661Y-61722242D01*
X125885303Y-61510010D01*
X126278629Y-61117370D01*
X126364949Y-60909488D01*
X126449990Y-61115303D01*
X126842630Y-61508629D01*
X127355900Y-61721757D01*
X127703138Y-61722060D01*
X127015398Y-62409800D01*
X118253431Y-62409800D01*
X118240910Y-62379497D01*
X117848270Y-61986171D01*
X117335000Y-61773043D01*
X116779239Y-61772558D01*
X116265597Y-61984790D01*
X115872271Y-62377430D01*
X115659143Y-62890700D01*
X115658658Y-63446461D01*
X115870890Y-63960103D01*
X116263530Y-64353429D01*
X116776800Y-64566557D01*
X117332561Y-64567042D01*
X117846203Y-64354810D01*
X118239529Y-63962170D01*
X118252970Y-63929800D01*
X127330200Y-63929800D01*
X127621039Y-63871948D01*
X127867601Y-63707201D01*
X129865619Y-61709183D01*
X129895900Y-61721757D01*
X130243138Y-61722060D01*
X121097198Y-70868000D01*
X119126000Y-70868000D01*
X118835161Y-70925852D01*
X118588599Y-71090599D01*
X118423852Y-71337161D01*
X118366000Y-71628000D01*
X118366000Y-72038772D01*
X118240197Y-71735057D01*
X117998013Y-71665592D01*
X117197405Y-72466200D01*
X117998013Y-73266808D01*
X118240197Y-73197343D01*
X118366000Y-72844722D01*
X118366000Y-104845198D01*
X113790000Y-100269198D01*
X113790000Y-73446413D01*
X116217192Y-73446413D01*
X116286657Y-73688597D01*
X116810102Y-73875344D01*
X117365168Y-73847562D01*
X117748943Y-73688597D01*
X117818408Y-73446413D01*
X117017800Y-72645805D01*
X116217192Y-73446413D01*
X113790000Y-73446413D01*
X113790000Y-72258502D01*
X115608656Y-72258502D01*
X115636438Y-72813568D01*
X115795403Y-73197343D01*
X116037587Y-73266808D01*
X116838195Y-72466200D01*
X116037587Y-71665592D01*
X115795403Y-71735057D01*
X115608656Y-72258502D01*
X113790000Y-72258502D01*
X113790000Y-71485987D01*
X116217192Y-71485987D01*
X117017800Y-72286595D01*
X117818408Y-71485987D01*
X117748943Y-71243803D01*
X117225498Y-71057056D01*
X116670432Y-71084838D01*
X116286657Y-71243803D01*
X116217192Y-71485987D01*
X113790000Y-71485987D01*
X113790000Y-68247061D01*
X115658658Y-68247061D01*
X115870890Y-68760703D01*
X116263530Y-69154029D01*
X116776800Y-69367157D01*
X117332561Y-69367642D01*
X117846203Y-69155410D01*
X118239529Y-68762770D01*
X118452657Y-68249500D01*
X118453142Y-67693739D01*
X118240910Y-67180097D01*
X117848270Y-66786771D01*
X117335000Y-66573643D01*
X116779239Y-66573158D01*
X116265597Y-66785390D01*
X115872271Y-67178030D01*
X115659143Y-67691300D01*
X115658658Y-68247061D01*
X113790000Y-68247061D01*
X113790000Y-55940802D01*
X124774802Y-44956000D01*
X160975198Y-44956000D01*
X167388000Y-51368802D01*
X167388000Y-51368802D01*
G37*
X167388000Y-51368802D02*
X167388000Y-59236518D01*
X167091371Y-59532630D01*
X167005051Y-59740512D01*
X166920010Y-59534697D01*
X166527370Y-59141371D01*
X166014100Y-58928243D01*
X165458339Y-58927758D01*
X164944697Y-59139990D01*
X164551371Y-59532630D01*
X164465051Y-59740512D01*
X164380010Y-59534697D01*
X163987370Y-59141371D01*
X163955000Y-59127930D01*
X163955000Y-53159660D01*
X163897148Y-52868821D01*
X163732401Y-52622259D01*
X159600783Y-48490641D01*
X159613357Y-48460360D01*
X159613842Y-47904599D01*
X159401610Y-47390957D01*
X159008970Y-46997631D01*
X158495700Y-46784503D01*
X157939939Y-46784018D01*
X157426297Y-46996250D01*
X157032971Y-47388890D01*
X156923155Y-47653356D01*
X156803190Y-47363017D01*
X156410550Y-46969691D01*
X155897280Y-46756563D01*
X155341519Y-46756078D01*
X154827877Y-46968310D01*
X154434551Y-47360950D01*
X154251358Y-47802129D01*
X154093010Y-47418897D01*
X153700370Y-47025571D01*
X153187100Y-46812443D01*
X152631339Y-46811958D01*
X152117697Y-47024190D01*
X151724371Y-47416830D01*
X151511243Y-47930100D01*
X151511241Y-47932536D01*
X151299010Y-47418897D01*
X150906370Y-47025571D01*
X150393100Y-46812443D01*
X149837339Y-46811958D01*
X149323697Y-47024190D01*
X148930371Y-47416830D01*
X148717243Y-47930100D01*
X148716758Y-48485861D01*
X148928990Y-48999503D01*
X149321630Y-49392829D01*
X149735000Y-49564475D01*
X149735000Y-59127469D01*
X149704697Y-59139990D01*
X149311371Y-59532630D01*
X149225051Y-59740512D01*
X149140010Y-59534697D01*
X148747370Y-59141371D01*
X148234100Y-58928243D01*
X147678339Y-58927758D01*
X147164697Y-59139990D01*
X146771371Y-59532630D01*
X146685051Y-59740512D01*
X146600010Y-59534697D01*
X146207370Y-59141371D01*
X145694100Y-58928243D01*
X145138339Y-58927758D01*
X144624697Y-59139990D01*
X144231371Y-59532630D01*
X144145051Y-59740512D01*
X144060010Y-59534697D01*
X143667370Y-59141371D01*
X143154100Y-58928243D01*
X142598339Y-58927758D01*
X142084697Y-59139990D01*
X141691371Y-59532630D01*
X141605051Y-59740512D01*
X141520010Y-59534697D01*
X141127370Y-59141371D01*
X140614100Y-58928243D01*
X140058339Y-58927758D01*
X139544697Y-59139990D01*
X139151371Y-59532630D01*
X139065051Y-59740512D01*
X138980010Y-59534697D01*
X138587370Y-59141371D01*
X138074100Y-58928243D01*
X137518339Y-58927758D01*
X137004697Y-59139990D01*
X136611371Y-59532630D01*
X136525051Y-59740512D01*
X136440010Y-59534697D01*
X136047370Y-59141371D01*
X135534100Y-58928243D01*
X134978339Y-58927758D01*
X134464697Y-59139990D01*
X134071371Y-59532630D01*
X133985051Y-59740512D01*
X133900010Y-59534697D01*
X133507370Y-59141371D01*
X132994100Y-58928243D01*
X132438339Y-58927758D01*
X131924697Y-59139990D01*
X131531371Y-59532630D01*
X131445051Y-59740512D01*
X131360010Y-59534697D01*
X130967370Y-59141371D01*
X130454100Y-58928243D01*
X129898339Y-58927758D01*
X129384697Y-59139990D01*
X128991371Y-59532630D01*
X128905051Y-59740512D01*
X128820010Y-59534697D01*
X128427370Y-59141371D01*
X127914100Y-58928243D01*
X127358339Y-58927758D01*
X126844697Y-59139990D01*
X126451371Y-59532630D01*
X126365051Y-59740512D01*
X126280010Y-59534697D01*
X125887370Y-59141371D01*
X125374100Y-58928243D01*
X124818339Y-58927758D01*
X124304697Y-59139990D01*
X123911371Y-59532630D01*
X123825051Y-59740512D01*
X123740010Y-59534697D01*
X123347370Y-59141371D01*
X122834100Y-58928243D01*
X122278339Y-58927758D01*
X121764697Y-59139990D01*
X121371371Y-59532630D01*
X121158243Y-60045900D01*
X121157758Y-60601661D01*
X121369990Y-61115303D01*
X121762630Y-61508629D01*
X122275900Y-61721757D01*
X122831661Y-61722242D01*
X123345303Y-61510010D01*
X123738629Y-61117370D01*
X123824949Y-60909488D01*
X123909990Y-61115303D01*
X124302630Y-61508629D01*
X124815900Y-61721757D01*
X125371661Y-61722242D01*
X125885303Y-61510010D01*
X126278629Y-61117370D01*
X126364949Y-60909488D01*
X126449990Y-61115303D01*
X126842630Y-61508629D01*
X127355900Y-61721757D01*
X127703138Y-61722060D01*
X127015398Y-62409800D01*
X118253431Y-62409800D01*
X118240910Y-62379497D01*
X117848270Y-61986171D01*
X117335000Y-61773043D01*
X116779239Y-61772558D01*
X116265597Y-61984790D01*
X115872271Y-62377430D01*
X115659143Y-62890700D01*
X115658658Y-63446461D01*
X115870890Y-63960103D01*
X116263530Y-64353429D01*
X116776800Y-64566557D01*
X117332561Y-64567042D01*
X117846203Y-64354810D01*
X118239529Y-63962170D01*
X118252970Y-63929800D01*
X127330200Y-63929800D01*
X127621039Y-63871948D01*
X127867601Y-63707201D01*
X129865619Y-61709183D01*
X129895900Y-61721757D01*
X130243138Y-61722060D01*
X121097198Y-70868000D01*
X119126000Y-70868000D01*
X118835161Y-70925852D01*
X118588599Y-71090599D01*
X118423852Y-71337161D01*
X118366000Y-71628000D01*
X118366000Y-72038772D01*
X118240197Y-71735057D01*
X117998013Y-71665592D01*
X117197405Y-72466200D01*
X117998013Y-73266808D01*
X118240197Y-73197343D01*
X118366000Y-72844722D01*
X118366000Y-104845198D01*
X113790000Y-100269198D01*
X113790000Y-73446413D01*
X116217192Y-73446413D01*
X116286657Y-73688597D01*
X116810102Y-73875344D01*
X117365168Y-73847562D01*
X117748943Y-73688597D01*
X117818408Y-73446413D01*
X117017800Y-72645805D01*
X116217192Y-73446413D01*
X113790000Y-73446413D01*
X113790000Y-72258502D01*
X115608656Y-72258502D01*
X115636438Y-72813568D01*
X115795403Y-73197343D01*
X116037587Y-73266808D01*
X116838195Y-72466200D01*
X116037587Y-71665592D01*
X115795403Y-71735057D01*
X115608656Y-72258502D01*
X113790000Y-72258502D01*
X113790000Y-71485987D01*
X116217192Y-71485987D01*
X117017800Y-72286595D01*
X117818408Y-71485987D01*
X117748943Y-71243803D01*
X117225498Y-71057056D01*
X116670432Y-71084838D01*
X116286657Y-71243803D01*
X116217192Y-71485987D01*
X113790000Y-71485987D01*
X113790000Y-68247061D01*
X115658658Y-68247061D01*
X115870890Y-68760703D01*
X116263530Y-69154029D01*
X116776800Y-69367157D01*
X117332561Y-69367642D01*
X117846203Y-69155410D01*
X118239529Y-68762770D01*
X118452657Y-68249500D01*
X118453142Y-67693739D01*
X118240910Y-67180097D01*
X117848270Y-66786771D01*
X117335000Y-66573643D01*
X116779239Y-66573158D01*
X116265597Y-66785390D01*
X115872271Y-67178030D01*
X115659143Y-67691300D01*
X115658658Y-68247061D01*
X113790000Y-68247061D01*
X113790000Y-55940802D01*
X124774802Y-44956000D01*
X160975198Y-44956000D01*
X167388000Y-51368802D01*
M02*
