G04 #@! TF.FileFunction,Copper,L2,Bot,Signal*
%FSLAX46Y46*%
G04 Gerber Fmt 4.6, Leading zero omitted, Abs format (unit mm)*
G04 Created by KiCad (PCBNEW 4.0.7) date 10/04/18 17:08:44*
%MOMM*%
%LPD*%
G01*
G04 APERTURE LIST*
%ADD10C,0.100000*%
%ADD11C,1.524000*%
G04 APERTURE END LIST*
D10*
D11*
X122555000Y-75565000D03*
X125095000Y-75565000D03*
X127635000Y-75565000D03*
X130175000Y-75565000D03*
X132715000Y-75565000D03*
X135255000Y-75565000D03*
X137795000Y-75565000D03*
X140335000Y-75565000D03*
X142875000Y-75565000D03*
X145415000Y-75565000D03*
X147955000Y-75565000D03*
X150495000Y-75565000D03*
X153035000Y-75565000D03*
X155575000Y-75565000D03*
X158115000Y-75565000D03*
X160655000Y-75565000D03*
X163195000Y-75565000D03*
X165735000Y-75565000D03*
X168275000Y-75565000D03*
X170815000Y-75565000D03*
X122555000Y-60325000D03*
X125095000Y-60325000D03*
X127635000Y-60325000D03*
X130175000Y-60325000D03*
X132715000Y-60325000D03*
X135255000Y-60325000D03*
X137795000Y-60325000D03*
X140335000Y-60325000D03*
X142875000Y-60325000D03*
X145415000Y-60325000D03*
X147955000Y-60325000D03*
X150495000Y-60325000D03*
X153035000Y-60325000D03*
X155575000Y-60325000D03*
X158115000Y-60325000D03*
X160655000Y-60325000D03*
X163195000Y-60325000D03*
X165735000Y-60325000D03*
X168275000Y-60325000D03*
X170815000Y-60325000D03*
M02*
