G04 #@! TF.FileFunction,Legend,Top*
%FSLAX46Y46*%
G04 Gerber Fmt 4.6, Leading zero omitted, Abs format (unit mm)*
G04 Created by KiCad (PCBNEW 4.0.7) date 10/04/18 17:08:44*
%MOMM*%
%LPD*%
G01*
G04 APERTURE LIST*
%ADD10C,0.100000*%
%ADD11C,0.150000*%
%ADD12C,0.120000*%
G04 APERTURE END LIST*
D10*
D11*
X146278600Y-75133200D02*
X114579400Y-75171300D01*
X114579400Y-75171300D02*
X114579400Y-75133200D01*
X146304000Y-60706000D02*
X146304000Y-75176000D01*
X114554000Y-60706000D02*
X114554000Y-75326000D01*
X146334000Y-60706000D02*
X114554000Y-60706000D01*
X114554000Y-60706000D02*
X124714000Y-60706000D01*
X147091400Y-61772800D02*
X178790600Y-61734700D01*
X178790600Y-61734700D02*
X178790600Y-61772800D01*
X147066000Y-76200000D02*
X147066000Y-61730000D01*
X178816000Y-76200000D02*
X178816000Y-61580000D01*
X147036000Y-76200000D02*
X178816000Y-76200000D01*
X178816000Y-76200000D02*
X168656000Y-76200000D01*
D12*
X110398000Y-33918000D02*
X111598000Y-33918000D01*
X111598000Y-35678000D02*
X110398000Y-35678000D01*
X130464000Y-110372000D02*
X131664000Y-110372000D01*
X131664000Y-112132000D02*
X130464000Y-112132000D01*
X104048000Y-33918000D02*
X105248000Y-33918000D01*
X105248000Y-35678000D02*
X104048000Y-35678000D01*
X126076000Y-112132000D02*
X124876000Y-112132000D01*
X124876000Y-110372000D02*
X126076000Y-110372000D01*
X161382000Y-111624000D02*
X160182000Y-111624000D01*
X160182000Y-109864000D02*
X161382000Y-109864000D01*
X181010000Y-35950000D02*
X182210000Y-35950000D01*
X182210000Y-37710000D02*
X181010000Y-37710000D01*
X187360000Y-35950000D02*
X188560000Y-35950000D01*
X188560000Y-37710000D02*
X187360000Y-37710000D01*
X165516000Y-109864000D02*
X166716000Y-109864000D01*
X166716000Y-111624000D02*
X165516000Y-111624000D01*
D11*
X173355000Y-56515000D02*
X120015000Y-56515000D01*
X120015000Y-56515000D02*
X120015000Y-79375000D01*
X120015000Y-79375000D02*
X173355000Y-79375000D01*
X173355000Y-79375000D02*
X173355000Y-56515000D01*
X163106100Y-46868080D02*
X163106100Y-46672500D01*
X163106100Y-46672500D02*
X160926780Y-46644560D01*
X160926780Y-46644560D02*
X160842960Y-46672500D01*
X163022280Y-46644560D02*
X145950940Y-46672500D01*
X145950940Y-46672500D02*
X145950940Y-50751740D01*
X145950940Y-50751740D02*
X163161980Y-50695860D01*
X163161980Y-50695860D02*
X163134040Y-46756320D01*
X137972800Y-115544600D02*
X137934700Y-83845400D01*
X137934700Y-83845400D02*
X137972800Y-83845400D01*
X152400000Y-115570000D02*
X137930000Y-115570000D01*
X152400000Y-83820000D02*
X137780000Y-83820000D01*
X152400000Y-115600000D02*
X152400000Y-83820000D01*
X152400000Y-83820000D02*
X152400000Y-93980000D01*
X134063740Y-114597180D02*
X123410980Y-114597180D01*
X123410980Y-114597180D02*
X123433840Y-120632220D01*
X123433840Y-120632220D02*
X123456700Y-120642380D01*
X134053580Y-120655080D02*
X134053580Y-114584980D01*
X134086600Y-120655080D02*
X134086600Y-120665240D01*
X134086600Y-120665240D02*
X123485400Y-120655080D01*
X124485400Y-120655080D02*
X124508260Y-120632220D01*
X113235740Y-38143180D02*
X102582980Y-38143180D01*
X102582980Y-38143180D02*
X102605840Y-44178220D01*
X102605840Y-44178220D02*
X102628700Y-44188380D01*
X113225580Y-44201080D02*
X113225580Y-38130980D01*
X113258600Y-44201080D02*
X113258600Y-44211240D01*
X113258600Y-44211240D02*
X102657400Y-44201080D01*
X103657400Y-44201080D02*
X103680260Y-44178220D01*
X168861740Y-114597180D02*
X158208980Y-114597180D01*
X158208980Y-114597180D02*
X158231840Y-120632220D01*
X158231840Y-120632220D02*
X158254700Y-120642380D01*
X168851580Y-120655080D02*
X168851580Y-114584980D01*
X168884600Y-120655080D02*
X168884600Y-120665240D01*
X168884600Y-120665240D02*
X158283400Y-120655080D01*
X159283400Y-120655080D02*
X159306260Y-120632220D01*
X190451740Y-39540180D02*
X179798980Y-39540180D01*
X179798980Y-39540180D02*
X179821840Y-45575220D01*
X179821840Y-45575220D02*
X179844700Y-45585380D01*
X190441580Y-45598080D02*
X190441580Y-39527980D01*
X190474600Y-45598080D02*
X190474600Y-45608240D01*
X190474600Y-45608240D02*
X179873400Y-45598080D01*
X180873400Y-45598080D02*
X180896260Y-45575220D01*
X122682095Y-59388381D02*
X122682095Y-60197905D01*
X122729714Y-60293143D01*
X122777333Y-60340762D01*
X122872571Y-60388381D01*
X123063048Y-60388381D01*
X123158286Y-60340762D01*
X123205905Y-60293143D01*
X123253524Y-60197905D01*
X123253524Y-59388381D01*
X123634476Y-59388381D02*
X124301143Y-59388381D01*
X123872571Y-60388381D01*
X169164095Y-76422381D02*
X169164095Y-77231905D01*
X169211714Y-77327143D01*
X169259333Y-77374762D01*
X169354571Y-77422381D01*
X169545048Y-77422381D01*
X169640286Y-77374762D01*
X169687905Y-77327143D01*
X169735524Y-77231905D01*
X169735524Y-76422381D01*
X170164095Y-76517619D02*
X170211714Y-76470000D01*
X170306952Y-76422381D01*
X170545048Y-76422381D01*
X170640286Y-76470000D01*
X170687905Y-76517619D01*
X170735524Y-76612857D01*
X170735524Y-76708095D01*
X170687905Y-76850952D01*
X170116476Y-77422381D01*
X170735524Y-77422381D01*
X110831334Y-36950381D02*
X110498000Y-36474190D01*
X110259905Y-36950381D02*
X110259905Y-35950381D01*
X110640858Y-35950381D01*
X110736096Y-35998000D01*
X110783715Y-36045619D01*
X110831334Y-36140857D01*
X110831334Y-36283714D01*
X110783715Y-36378952D01*
X110736096Y-36426571D01*
X110640858Y-36474190D01*
X110259905Y-36474190D01*
X111783715Y-36950381D02*
X111212286Y-36950381D01*
X111498000Y-36950381D02*
X111498000Y-35950381D01*
X111402762Y-36093238D01*
X111307524Y-36188476D01*
X111212286Y-36236095D01*
X130897334Y-113404381D02*
X130564000Y-112928190D01*
X130325905Y-113404381D02*
X130325905Y-112404381D01*
X130706858Y-112404381D01*
X130802096Y-112452000D01*
X130849715Y-112499619D01*
X130897334Y-112594857D01*
X130897334Y-112737714D01*
X130849715Y-112832952D01*
X130802096Y-112880571D01*
X130706858Y-112928190D01*
X130325905Y-112928190D01*
X131278286Y-112499619D02*
X131325905Y-112452000D01*
X131421143Y-112404381D01*
X131659239Y-112404381D01*
X131754477Y-112452000D01*
X131802096Y-112499619D01*
X131849715Y-112594857D01*
X131849715Y-112690095D01*
X131802096Y-112832952D01*
X131230667Y-113404381D01*
X131849715Y-113404381D01*
X104481334Y-36950381D02*
X104148000Y-36474190D01*
X103909905Y-36950381D02*
X103909905Y-35950381D01*
X104290858Y-35950381D01*
X104386096Y-35998000D01*
X104433715Y-36045619D01*
X104481334Y-36140857D01*
X104481334Y-36283714D01*
X104433715Y-36378952D01*
X104386096Y-36426571D01*
X104290858Y-36474190D01*
X103909905Y-36474190D01*
X104814667Y-35950381D02*
X105433715Y-35950381D01*
X105100381Y-36331333D01*
X105243239Y-36331333D01*
X105338477Y-36378952D01*
X105386096Y-36426571D01*
X105433715Y-36521810D01*
X105433715Y-36759905D01*
X105386096Y-36855143D01*
X105338477Y-36902762D01*
X105243239Y-36950381D01*
X104957524Y-36950381D01*
X104862286Y-36902762D01*
X104814667Y-36855143D01*
X125309334Y-110004381D02*
X124976000Y-109528190D01*
X124737905Y-110004381D02*
X124737905Y-109004381D01*
X125118858Y-109004381D01*
X125214096Y-109052000D01*
X125261715Y-109099619D01*
X125309334Y-109194857D01*
X125309334Y-109337714D01*
X125261715Y-109432952D01*
X125214096Y-109480571D01*
X125118858Y-109528190D01*
X124737905Y-109528190D01*
X126166477Y-109337714D02*
X126166477Y-110004381D01*
X125928381Y-108956762D02*
X125690286Y-109671048D01*
X126309334Y-109671048D01*
X160615334Y-109496381D02*
X160282000Y-109020190D01*
X160043905Y-109496381D02*
X160043905Y-108496381D01*
X160424858Y-108496381D01*
X160520096Y-108544000D01*
X160567715Y-108591619D01*
X160615334Y-108686857D01*
X160615334Y-108829714D01*
X160567715Y-108924952D01*
X160520096Y-108972571D01*
X160424858Y-109020190D01*
X160043905Y-109020190D01*
X161520096Y-108496381D02*
X161043905Y-108496381D01*
X160996286Y-108972571D01*
X161043905Y-108924952D01*
X161139143Y-108877333D01*
X161377239Y-108877333D01*
X161472477Y-108924952D01*
X161520096Y-108972571D01*
X161567715Y-109067810D01*
X161567715Y-109305905D01*
X161520096Y-109401143D01*
X161472477Y-109448762D01*
X161377239Y-109496381D01*
X161139143Y-109496381D01*
X161043905Y-109448762D01*
X160996286Y-109401143D01*
X181443334Y-38982381D02*
X181110000Y-38506190D01*
X180871905Y-38982381D02*
X180871905Y-37982381D01*
X181252858Y-37982381D01*
X181348096Y-38030000D01*
X181395715Y-38077619D01*
X181443334Y-38172857D01*
X181443334Y-38315714D01*
X181395715Y-38410952D01*
X181348096Y-38458571D01*
X181252858Y-38506190D01*
X180871905Y-38506190D01*
X182300477Y-37982381D02*
X182110000Y-37982381D01*
X182014762Y-38030000D01*
X181967143Y-38077619D01*
X181871905Y-38220476D01*
X181824286Y-38410952D01*
X181824286Y-38791905D01*
X181871905Y-38887143D01*
X181919524Y-38934762D01*
X182014762Y-38982381D01*
X182205239Y-38982381D01*
X182300477Y-38934762D01*
X182348096Y-38887143D01*
X182395715Y-38791905D01*
X182395715Y-38553810D01*
X182348096Y-38458571D01*
X182300477Y-38410952D01*
X182205239Y-38363333D01*
X182014762Y-38363333D01*
X181919524Y-38410952D01*
X181871905Y-38458571D01*
X181824286Y-38553810D01*
X187793334Y-38982381D02*
X187460000Y-38506190D01*
X187221905Y-38982381D02*
X187221905Y-37982381D01*
X187602858Y-37982381D01*
X187698096Y-38030000D01*
X187745715Y-38077619D01*
X187793334Y-38172857D01*
X187793334Y-38315714D01*
X187745715Y-38410952D01*
X187698096Y-38458571D01*
X187602858Y-38506190D01*
X187221905Y-38506190D01*
X188126667Y-37982381D02*
X188793334Y-37982381D01*
X188364762Y-38982381D01*
X165949334Y-112896381D02*
X165616000Y-112420190D01*
X165377905Y-112896381D02*
X165377905Y-111896381D01*
X165758858Y-111896381D01*
X165854096Y-111944000D01*
X165901715Y-111991619D01*
X165949334Y-112086857D01*
X165949334Y-112229714D01*
X165901715Y-112324952D01*
X165854096Y-112372571D01*
X165758858Y-112420190D01*
X165377905Y-112420190D01*
X166520762Y-112324952D02*
X166425524Y-112277333D01*
X166377905Y-112229714D01*
X166330286Y-112134476D01*
X166330286Y-112086857D01*
X166377905Y-111991619D01*
X166425524Y-111944000D01*
X166520762Y-111896381D01*
X166711239Y-111896381D01*
X166806477Y-111944000D01*
X166854096Y-111991619D01*
X166901715Y-112086857D01*
X166901715Y-112134476D01*
X166854096Y-112229714D01*
X166806477Y-112277333D01*
X166711239Y-112324952D01*
X166520762Y-112324952D01*
X166425524Y-112372571D01*
X166377905Y-112420190D01*
X166330286Y-112515429D01*
X166330286Y-112705905D01*
X166377905Y-112801143D01*
X166425524Y-112848762D01*
X166520762Y-112896381D01*
X166711239Y-112896381D01*
X166806477Y-112848762D01*
X166854096Y-112801143D01*
X166901715Y-112705905D01*
X166901715Y-112515429D01*
X166854096Y-112420190D01*
X166806477Y-112372571D01*
X166711239Y-112324952D01*
X118197381Y-68071905D02*
X119006905Y-68071905D01*
X119102143Y-68024286D01*
X119149762Y-67976667D01*
X119197381Y-67881429D01*
X119197381Y-67690952D01*
X119149762Y-67595714D01*
X119102143Y-67548095D01*
X119006905Y-67500476D01*
X118197381Y-67500476D01*
X119197381Y-66500476D02*
X119197381Y-67071905D01*
X119197381Y-66786191D02*
X118197381Y-66786191D01*
X118340238Y-66881429D01*
X118435476Y-66976667D01*
X118483095Y-67071905D01*
X153543095Y-45037381D02*
X153543095Y-45846905D01*
X153590714Y-45942143D01*
X153638333Y-45989762D01*
X153733571Y-46037381D01*
X153924048Y-46037381D01*
X154019286Y-45989762D01*
X154066905Y-45942143D01*
X154114524Y-45846905D01*
X154114524Y-45037381D01*
X155066905Y-45037381D02*
X154590714Y-45037381D01*
X154543095Y-45513571D01*
X154590714Y-45465952D01*
X154685952Y-45418333D01*
X154924048Y-45418333D01*
X155019286Y-45465952D01*
X155066905Y-45513571D01*
X155114524Y-45608810D01*
X155114524Y-45846905D01*
X155066905Y-45942143D01*
X155019286Y-45989762D01*
X154924048Y-46037381D01*
X154685952Y-46037381D01*
X154590714Y-45989762D01*
X154543095Y-45942143D01*
X152622381Y-93471905D02*
X153431905Y-93471905D01*
X153527143Y-93424286D01*
X153574762Y-93376667D01*
X153622381Y-93281429D01*
X153622381Y-93090952D01*
X153574762Y-92995714D01*
X153527143Y-92948095D01*
X153431905Y-92900476D01*
X152622381Y-92900476D01*
X152622381Y-91995714D02*
X152622381Y-92186191D01*
X152670000Y-92281429D01*
X152717619Y-92329048D01*
X152860476Y-92424286D01*
X153050952Y-92471905D01*
X153431905Y-92471905D01*
X153527143Y-92424286D01*
X153574762Y-92376667D01*
X153622381Y-92281429D01*
X153622381Y-92090952D01*
X153574762Y-91995714D01*
X153527143Y-91948095D01*
X153431905Y-91900476D01*
X153193810Y-91900476D01*
X153098571Y-91948095D01*
X153050952Y-91995714D01*
X153003333Y-92090952D01*
X153003333Y-92281429D01*
X153050952Y-92376667D01*
X153098571Y-92424286D01*
X153193810Y-92471905D01*
X128270095Y-121634381D02*
X128270095Y-122443905D01*
X128317714Y-122539143D01*
X128365333Y-122586762D01*
X128460571Y-122634381D01*
X128651048Y-122634381D01*
X128746286Y-122586762D01*
X128793905Y-122539143D01*
X128841524Y-122443905D01*
X128841524Y-121634381D01*
X129746286Y-121967714D02*
X129746286Y-122634381D01*
X129508190Y-121586762D02*
X129270095Y-122301048D01*
X129889143Y-122301048D01*
X107442095Y-45180381D02*
X107442095Y-45989905D01*
X107489714Y-46085143D01*
X107537333Y-46132762D01*
X107632571Y-46180381D01*
X107823048Y-46180381D01*
X107918286Y-46132762D01*
X107965905Y-46085143D01*
X108013524Y-45989905D01*
X108013524Y-45180381D01*
X108394476Y-45180381D02*
X109013524Y-45180381D01*
X108680190Y-45561333D01*
X108823048Y-45561333D01*
X108918286Y-45608952D01*
X108965905Y-45656571D01*
X109013524Y-45751810D01*
X109013524Y-45989905D01*
X108965905Y-46085143D01*
X108918286Y-46132762D01*
X108823048Y-46180381D01*
X108537333Y-46180381D01*
X108442095Y-46132762D01*
X108394476Y-46085143D01*
X163068095Y-121634381D02*
X163068095Y-122443905D01*
X163115714Y-122539143D01*
X163163333Y-122586762D01*
X163258571Y-122634381D01*
X163449048Y-122634381D01*
X163544286Y-122586762D01*
X163591905Y-122539143D01*
X163639524Y-122443905D01*
X163639524Y-121634381D01*
X164163333Y-122634381D02*
X164353809Y-122634381D01*
X164449048Y-122586762D01*
X164496667Y-122539143D01*
X164591905Y-122396286D01*
X164639524Y-122205810D01*
X164639524Y-121824857D01*
X164591905Y-121729619D01*
X164544286Y-121682000D01*
X164449048Y-121634381D01*
X164258571Y-121634381D01*
X164163333Y-121682000D01*
X164115714Y-121729619D01*
X164068095Y-121824857D01*
X164068095Y-122062952D01*
X164115714Y-122158190D01*
X164163333Y-122205810D01*
X164258571Y-122253429D01*
X164449048Y-122253429D01*
X164544286Y-122205810D01*
X164591905Y-122158190D01*
X164639524Y-122062952D01*
X184658095Y-46577381D02*
X184658095Y-47386905D01*
X184705714Y-47482143D01*
X184753333Y-47529762D01*
X184848571Y-47577381D01*
X185039048Y-47577381D01*
X185134286Y-47529762D01*
X185181905Y-47482143D01*
X185229524Y-47386905D01*
X185229524Y-46577381D01*
X185848571Y-47005952D02*
X185753333Y-46958333D01*
X185705714Y-46910714D01*
X185658095Y-46815476D01*
X185658095Y-46767857D01*
X185705714Y-46672619D01*
X185753333Y-46625000D01*
X185848571Y-46577381D01*
X186039048Y-46577381D01*
X186134286Y-46625000D01*
X186181905Y-46672619D01*
X186229524Y-46767857D01*
X186229524Y-46815476D01*
X186181905Y-46910714D01*
X186134286Y-46958333D01*
X186039048Y-47005952D01*
X185848571Y-47005952D01*
X185753333Y-47053571D01*
X185705714Y-47101190D01*
X185658095Y-47196429D01*
X185658095Y-47386905D01*
X185705714Y-47482143D01*
X185753333Y-47529762D01*
X185848571Y-47577381D01*
X186039048Y-47577381D01*
X186134286Y-47529762D01*
X186181905Y-47482143D01*
X186229524Y-47386905D01*
X186229524Y-47196429D01*
X186181905Y-47101190D01*
X186134286Y-47053571D01*
X186039048Y-47005952D01*
M02*
