G04 #@! TF.FileFunction,Legend,Top*
%FSLAX46Y46*%
G04 Gerber Fmt 4.6, Leading zero omitted, Abs format (unit mm)*
G04 Created by KiCad (PCBNEW 4.0.7) date 06/04/18 21:16:23*
%MOMM*%
%LPD*%
G01*
G04 APERTURE LIST*
%ADD10C,0.100000*%
%ADD11C,0.127000*%
%ADD12C,0.150000*%
%ADD13C,0.120000*%
%ADD14C,0.050000*%
G04 APERTURE END LIST*
D10*
D11*
X158840000Y-162780000D02*
X174840000Y-162780000D01*
X185840000Y-162780000D02*
X201840000Y-162780000D01*
X202840000Y-148980000D02*
X201840000Y-148980000D01*
X201840000Y-148980000D02*
X185840000Y-148980000D01*
X185840000Y-148980000D02*
X174840000Y-148980000D01*
X174840000Y-148980000D02*
X158840000Y-148980000D01*
X158840000Y-148980000D02*
X157840000Y-148980000D01*
X157840000Y-148980000D02*
X157840000Y-147780000D01*
X157840000Y-147780000D02*
X202840000Y-147780000D01*
X202840000Y-147780000D02*
X202840000Y-148980000D01*
X158840000Y-148980000D02*
X158840000Y-162780000D01*
X201840000Y-148980000D02*
X201840000Y-162780000D01*
X174840000Y-148980000D02*
X174840000Y-162780000D01*
X185840000Y-148980000D02*
X185840000Y-162780000D01*
X201840000Y-68360000D02*
X185840000Y-68360000D01*
X174840000Y-68360000D02*
X158840000Y-68360000D01*
X157840000Y-82160000D02*
X158840000Y-82160000D01*
X158840000Y-82160000D02*
X174840000Y-82160000D01*
X174840000Y-82160000D02*
X185840000Y-82160000D01*
X185840000Y-82160000D02*
X201840000Y-82160000D01*
X201840000Y-82160000D02*
X202840000Y-82160000D01*
X202840000Y-82160000D02*
X202840000Y-83360000D01*
X202840000Y-83360000D02*
X157840000Y-83360000D01*
X157840000Y-83360000D02*
X157840000Y-82160000D01*
X201840000Y-82160000D02*
X201840000Y-68360000D01*
X158840000Y-82160000D02*
X158840000Y-68360000D01*
X185840000Y-82160000D02*
X185840000Y-68360000D01*
X174840000Y-82160000D02*
X174840000Y-68360000D01*
D12*
X158750000Y-138430000D02*
X158750000Y-95250000D01*
X158750000Y-95250000D02*
X201930000Y-95250000D01*
X201930000Y-95250000D02*
X201930000Y-138430000D01*
X201930000Y-138430000D02*
X158750000Y-138430000D01*
X158750000Y-138430000D02*
X171450000Y-138430000D01*
D13*
X142360000Y-104970000D02*
X142120000Y-104970000D01*
X142120000Y-105850000D02*
X142360000Y-105850000D01*
X152520000Y-106240000D02*
X152280000Y-106240000D01*
X152280000Y-107120000D02*
X152520000Y-107120000D01*
X162680000Y-91000000D02*
X162440000Y-91000000D01*
X162440000Y-91880000D02*
X162680000Y-91880000D01*
X165220000Y-91000000D02*
X164980000Y-91000000D01*
X164980000Y-91880000D02*
X165220000Y-91880000D01*
X155060000Y-108780000D02*
X154820000Y-108780000D01*
X154820000Y-109660000D02*
X155060000Y-109660000D01*
X150110000Y-118510000D02*
X149610000Y-118510000D01*
X149610000Y-117710000D02*
X150110000Y-117710000D01*
X204440000Y-122620000D02*
X204440000Y-123760000D01*
X204440000Y-123760000D02*
X206540000Y-123760000D01*
X204440000Y-122620000D02*
X206540000Y-122620000D01*
X208250000Y-122620000D02*
X208250000Y-123760000D01*
X208250000Y-123760000D02*
X210350000Y-123760000D01*
X208250000Y-122620000D02*
X210350000Y-122620000D01*
X212060000Y-122620000D02*
X212060000Y-123760000D01*
X212060000Y-123760000D02*
X214160000Y-123760000D01*
X212060000Y-122620000D02*
X214160000Y-122620000D01*
X208010000Y-146470000D02*
X212510000Y-146470000D01*
X206760000Y-142470000D02*
X206760000Y-143970000D01*
X212510000Y-139970000D02*
X208010000Y-139970000D01*
X213760000Y-143970000D02*
X213760000Y-142470000D01*
D12*
X191770000Y-142240000D02*
X191770000Y-88900000D01*
X191770000Y-88900000D02*
X168910000Y-88900000D01*
X168910000Y-88900000D02*
X168910000Y-142240000D01*
X168910000Y-142240000D02*
X191770000Y-142240000D01*
X209550000Y-111760000D02*
X212090000Y-111760000D01*
X212090000Y-111760000D02*
X212090000Y-114300000D01*
X212090000Y-114300000D02*
X210185000Y-114300000D01*
X210185000Y-114300000D02*
X209550000Y-113665000D01*
X209550000Y-113665000D02*
X209550000Y-111760000D01*
X190500000Y-165100000D02*
X170180000Y-165100000D01*
X170180000Y-165100000D02*
X170180000Y-144780000D01*
X170180000Y-144780000D02*
X190500000Y-144780000D01*
X190500000Y-144780000D02*
X190500000Y-165100000D01*
X204470000Y-68580000D02*
X224790000Y-68580000D01*
X224790000Y-68580000D02*
X224790000Y-88900000D01*
X224790000Y-88900000D02*
X204470000Y-88900000D01*
X204470000Y-88900000D02*
X204470000Y-68580000D01*
X135890000Y-68580000D02*
X156210000Y-68580000D01*
X156210000Y-68580000D02*
X156210000Y-88900000D01*
X156210000Y-88900000D02*
X135890000Y-88900000D01*
X135890000Y-88900000D02*
X135890000Y-68580000D01*
D14*
X159450555Y-146279711D02*
X159450555Y-147089915D01*
X159498214Y-147185233D01*
X159545873Y-147232892D01*
X159641191Y-147280551D01*
X159831828Y-147280551D01*
X159927146Y-147232892D01*
X159974805Y-147185233D01*
X160022464Y-147089915D01*
X160022464Y-146279711D01*
X160927986Y-146613324D02*
X160927986Y-147280551D01*
X160689690Y-146232052D02*
X160451395Y-146946938D01*
X161070963Y-146946938D01*
X196376433Y-147338078D02*
X196376433Y-146335278D01*
X196376433Y-146812801D02*
X196949461Y-146812801D01*
X196949461Y-147338078D02*
X196949461Y-146335278D01*
X198000013Y-147242573D02*
X197952261Y-147290325D01*
X197809004Y-147338078D01*
X197713499Y-147338078D01*
X197570242Y-147290325D01*
X197474737Y-147194820D01*
X197426985Y-147099316D01*
X197379233Y-146908306D01*
X197379233Y-146765049D01*
X197426985Y-146574040D01*
X197474737Y-146478535D01*
X197570242Y-146383030D01*
X197713499Y-146335278D01*
X197809004Y-146335278D01*
X197952261Y-146383030D01*
X198000013Y-146430782D01*
X198429785Y-146956059D02*
X199193823Y-146956059D01*
X199623595Y-147290325D02*
X199766852Y-147338078D01*
X200005614Y-147338078D01*
X200101118Y-147290325D01*
X200148871Y-147242573D01*
X200196623Y-147147068D01*
X200196623Y-147051563D01*
X200148871Y-146956059D01*
X200101118Y-146908306D01*
X200005614Y-146860554D01*
X199814604Y-146812801D01*
X199719099Y-146765049D01*
X199671347Y-146717297D01*
X199623595Y-146621792D01*
X199623595Y-146526287D01*
X199671347Y-146430782D01*
X199719099Y-146383030D01*
X199814604Y-146335278D01*
X200053366Y-146335278D01*
X200196623Y-146383030D01*
X201199423Y-147338078D02*
X200865157Y-146860554D01*
X200626395Y-147338078D02*
X200626395Y-146335278D01*
X201008414Y-146335278D01*
X201103919Y-146383030D01*
X201151671Y-146430782D01*
X201199423Y-146526287D01*
X201199423Y-146669544D01*
X201151671Y-146765049D01*
X201103919Y-146812801D01*
X201008414Y-146860554D01*
X200626395Y-146860554D01*
X201820204Y-146335278D02*
X201915709Y-146335278D01*
X202011214Y-146383030D01*
X202058966Y-146430782D01*
X202106719Y-146526287D01*
X202154471Y-146717297D01*
X202154471Y-146956059D01*
X202106719Y-147147068D01*
X202058966Y-147242573D01*
X202011214Y-147290325D01*
X201915709Y-147338078D01*
X201820204Y-147338078D01*
X201724700Y-147290325D01*
X201676947Y-147242573D01*
X201629195Y-147147068D01*
X201581443Y-146956059D01*
X201581443Y-146717297D01*
X201629195Y-146526287D01*
X201676947Y-146430782D01*
X201724700Y-146383030D01*
X201820204Y-146335278D01*
X203014014Y-146669544D02*
X203014014Y-147338078D01*
X202775252Y-146287525D02*
X202536491Y-147003811D01*
X203157271Y-147003811D01*
X199704355Y-83764131D02*
X199704355Y-84574335D01*
X199752014Y-84669653D01*
X199799673Y-84717312D01*
X199894991Y-84764971D01*
X200085628Y-84764971D01*
X200180946Y-84717312D01*
X200228605Y-84669653D01*
X200276264Y-84574335D01*
X200276264Y-83764131D01*
X201229445Y-83764131D02*
X200752854Y-83764131D01*
X200705195Y-84240721D01*
X200752854Y-84193062D01*
X200848172Y-84145403D01*
X201086468Y-84145403D01*
X201181786Y-84193062D01*
X201229445Y-84240721D01*
X201277104Y-84336040D01*
X201277104Y-84574335D01*
X201229445Y-84669653D01*
X201181786Y-84717312D01*
X201086468Y-84764971D01*
X200848172Y-84764971D01*
X200752854Y-84717312D01*
X200705195Y-84669653D01*
X157618233Y-84709218D02*
X157618233Y-83706418D01*
X157618233Y-84183941D02*
X158191261Y-84183941D01*
X158191261Y-84709218D02*
X158191261Y-83706418D01*
X159241813Y-84613713D02*
X159194061Y-84661465D01*
X159050804Y-84709218D01*
X158955299Y-84709218D01*
X158812042Y-84661465D01*
X158716537Y-84565960D01*
X158668785Y-84470456D01*
X158621033Y-84279446D01*
X158621033Y-84136189D01*
X158668785Y-83945180D01*
X158716537Y-83849675D01*
X158812042Y-83754170D01*
X158955299Y-83706418D01*
X159050804Y-83706418D01*
X159194061Y-83754170D01*
X159241813Y-83801922D01*
X159671585Y-84327199D02*
X160435623Y-84327199D01*
X160865395Y-84661465D02*
X161008652Y-84709218D01*
X161247414Y-84709218D01*
X161342918Y-84661465D01*
X161390671Y-84613713D01*
X161438423Y-84518208D01*
X161438423Y-84422703D01*
X161390671Y-84327199D01*
X161342918Y-84279446D01*
X161247414Y-84231694D01*
X161056404Y-84183941D01*
X160960899Y-84136189D01*
X160913147Y-84088437D01*
X160865395Y-83992932D01*
X160865395Y-83897427D01*
X160913147Y-83801922D01*
X160960899Y-83754170D01*
X161056404Y-83706418D01*
X161295166Y-83706418D01*
X161438423Y-83754170D01*
X162441223Y-84709218D02*
X162106957Y-84231694D01*
X161868195Y-84709218D02*
X161868195Y-83706418D01*
X162250214Y-83706418D01*
X162345719Y-83754170D01*
X162393471Y-83801922D01*
X162441223Y-83897427D01*
X162441223Y-84040684D01*
X162393471Y-84136189D01*
X162345719Y-84183941D01*
X162250214Y-84231694D01*
X161868195Y-84231694D01*
X163062004Y-83706418D02*
X163157509Y-83706418D01*
X163253014Y-83754170D01*
X163300766Y-83801922D01*
X163348519Y-83897427D01*
X163396271Y-84088437D01*
X163396271Y-84327199D01*
X163348519Y-84518208D01*
X163300766Y-84613713D01*
X163253014Y-84661465D01*
X163157509Y-84709218D01*
X163062004Y-84709218D01*
X162966500Y-84661465D01*
X162918747Y-84613713D01*
X162870995Y-84518208D01*
X162823243Y-84327199D01*
X162823243Y-84088437D01*
X162870995Y-83897427D01*
X162918747Y-83801922D01*
X162966500Y-83754170D01*
X163062004Y-83706418D01*
X164255814Y-84040684D02*
X164255814Y-84709218D01*
X164017052Y-83658665D02*
X163778291Y-84374951D01*
X164399071Y-84374951D01*
D12*
X154392381Y-117601905D02*
X155201905Y-117601905D01*
X155297143Y-117554286D01*
X155344762Y-117506667D01*
X155392381Y-117411429D01*
X155392381Y-117220952D01*
X155344762Y-117125714D01*
X155297143Y-117078095D01*
X155201905Y-117030476D01*
X154392381Y-117030476D01*
X154392381Y-116649524D02*
X154392381Y-116030476D01*
X154773333Y-116363810D01*
X154773333Y-116220952D01*
X154820952Y-116125714D01*
X154868571Y-116078095D01*
X154963810Y-116030476D01*
X155201905Y-116030476D01*
X155297143Y-116078095D01*
X155344762Y-116125714D01*
X155392381Y-116220952D01*
X155392381Y-116506667D01*
X155344762Y-116601905D01*
X155297143Y-116649524D01*
X141168572Y-104612381D02*
X140597143Y-104612381D01*
X140882857Y-104612381D02*
X140882857Y-103612381D01*
X140787619Y-103755238D01*
X140692381Y-103850476D01*
X140597143Y-103898095D01*
X141787619Y-103612381D02*
X141882858Y-103612381D01*
X141978096Y-103660000D01*
X142025715Y-103707619D01*
X142073334Y-103802857D01*
X142120953Y-103993333D01*
X142120953Y-104231429D01*
X142073334Y-104421905D01*
X142025715Y-104517143D01*
X141978096Y-104564762D01*
X141882858Y-104612381D01*
X141787619Y-104612381D01*
X141692381Y-104564762D01*
X141644762Y-104517143D01*
X141597143Y-104421905D01*
X141549524Y-104231429D01*
X141549524Y-103993333D01*
X141597143Y-103802857D01*
X141644762Y-103707619D01*
X141692381Y-103660000D01*
X141787619Y-103612381D01*
X142549524Y-104612381D02*
X142549524Y-103612381D01*
X142644762Y-104231429D02*
X142930477Y-104612381D01*
X142930477Y-103945714D02*
X142549524Y-104326667D01*
X143882858Y-104612381D02*
X143311429Y-104612381D01*
X143597143Y-104612381D02*
X143597143Y-103612381D01*
X143501905Y-103755238D01*
X143406667Y-103850476D01*
X143311429Y-103898095D01*
X150852381Y-105882381D02*
X150280952Y-105882381D01*
X150566666Y-105882381D02*
X150566666Y-104882381D01*
X150471428Y-105025238D01*
X150376190Y-105120476D01*
X150280952Y-105168095D01*
X151471428Y-104882381D02*
X151566667Y-104882381D01*
X151661905Y-104930000D01*
X151709524Y-104977619D01*
X151757143Y-105072857D01*
X151804762Y-105263333D01*
X151804762Y-105501429D01*
X151757143Y-105691905D01*
X151709524Y-105787143D01*
X151661905Y-105834762D01*
X151566667Y-105882381D01*
X151471428Y-105882381D01*
X151376190Y-105834762D01*
X151328571Y-105787143D01*
X151280952Y-105691905D01*
X151233333Y-105501429D01*
X151233333Y-105263333D01*
X151280952Y-105072857D01*
X151328571Y-104977619D01*
X151376190Y-104930000D01*
X151471428Y-104882381D01*
X152423809Y-104882381D02*
X152519048Y-104882381D01*
X152614286Y-104930000D01*
X152661905Y-104977619D01*
X152709524Y-105072857D01*
X152757143Y-105263333D01*
X152757143Y-105501429D01*
X152709524Y-105691905D01*
X152661905Y-105787143D01*
X152614286Y-105834762D01*
X152519048Y-105882381D01*
X152423809Y-105882381D01*
X152328571Y-105834762D01*
X152280952Y-105787143D01*
X152233333Y-105691905D01*
X152185714Y-105501429D01*
X152185714Y-105263333D01*
X152233333Y-105072857D01*
X152280952Y-104977619D01*
X152328571Y-104930000D01*
X152423809Y-104882381D01*
X153185714Y-105882381D02*
X153185714Y-104882381D01*
X153280952Y-105501429D02*
X153566667Y-105882381D01*
X153566667Y-105215714D02*
X153185714Y-105596667D01*
X154519048Y-105882381D02*
X153947619Y-105882381D01*
X154233333Y-105882381D02*
X154233333Y-104882381D01*
X154138095Y-105025238D01*
X154042857Y-105120476D01*
X153947619Y-105168095D01*
X161012381Y-90642381D02*
X160440952Y-90642381D01*
X160726666Y-90642381D02*
X160726666Y-89642381D01*
X160631428Y-89785238D01*
X160536190Y-89880476D01*
X160440952Y-89928095D01*
X161631428Y-89642381D02*
X161726667Y-89642381D01*
X161821905Y-89690000D01*
X161869524Y-89737619D01*
X161917143Y-89832857D01*
X161964762Y-90023333D01*
X161964762Y-90261429D01*
X161917143Y-90451905D01*
X161869524Y-90547143D01*
X161821905Y-90594762D01*
X161726667Y-90642381D01*
X161631428Y-90642381D01*
X161536190Y-90594762D01*
X161488571Y-90547143D01*
X161440952Y-90451905D01*
X161393333Y-90261429D01*
X161393333Y-90023333D01*
X161440952Y-89832857D01*
X161488571Y-89737619D01*
X161536190Y-89690000D01*
X161631428Y-89642381D01*
X162583809Y-89642381D02*
X162679048Y-89642381D01*
X162774286Y-89690000D01*
X162821905Y-89737619D01*
X162869524Y-89832857D01*
X162917143Y-90023333D01*
X162917143Y-90261429D01*
X162869524Y-90451905D01*
X162821905Y-90547143D01*
X162774286Y-90594762D01*
X162679048Y-90642381D01*
X162583809Y-90642381D01*
X162488571Y-90594762D01*
X162440952Y-90547143D01*
X162393333Y-90451905D01*
X162345714Y-90261429D01*
X162345714Y-90023333D01*
X162393333Y-89832857D01*
X162440952Y-89737619D01*
X162488571Y-89690000D01*
X162583809Y-89642381D01*
X163345714Y-90642381D02*
X163345714Y-89642381D01*
X163440952Y-90261429D02*
X163726667Y-90642381D01*
X163726667Y-89975714D02*
X163345714Y-90356667D01*
X164107619Y-89737619D02*
X164155238Y-89690000D01*
X164250476Y-89642381D01*
X164488572Y-89642381D01*
X164583810Y-89690000D01*
X164631429Y-89737619D01*
X164679048Y-89832857D01*
X164679048Y-89928095D01*
X164631429Y-90070952D01*
X164060000Y-90642381D01*
X164679048Y-90642381D01*
X163552381Y-90642381D02*
X162980952Y-90642381D01*
X163266666Y-90642381D02*
X163266666Y-89642381D01*
X163171428Y-89785238D01*
X163076190Y-89880476D01*
X162980952Y-89928095D01*
X164171428Y-89642381D02*
X164266667Y-89642381D01*
X164361905Y-89690000D01*
X164409524Y-89737619D01*
X164457143Y-89832857D01*
X164504762Y-90023333D01*
X164504762Y-90261429D01*
X164457143Y-90451905D01*
X164409524Y-90547143D01*
X164361905Y-90594762D01*
X164266667Y-90642381D01*
X164171428Y-90642381D01*
X164076190Y-90594762D01*
X164028571Y-90547143D01*
X163980952Y-90451905D01*
X163933333Y-90261429D01*
X163933333Y-90023333D01*
X163980952Y-89832857D01*
X164028571Y-89737619D01*
X164076190Y-89690000D01*
X164171428Y-89642381D01*
X165123809Y-89642381D02*
X165219048Y-89642381D01*
X165314286Y-89690000D01*
X165361905Y-89737619D01*
X165409524Y-89832857D01*
X165457143Y-90023333D01*
X165457143Y-90261429D01*
X165409524Y-90451905D01*
X165361905Y-90547143D01*
X165314286Y-90594762D01*
X165219048Y-90642381D01*
X165123809Y-90642381D01*
X165028571Y-90594762D01*
X164980952Y-90547143D01*
X164933333Y-90451905D01*
X164885714Y-90261429D01*
X164885714Y-90023333D01*
X164933333Y-89832857D01*
X164980952Y-89737619D01*
X165028571Y-89690000D01*
X165123809Y-89642381D01*
X165885714Y-90642381D02*
X165885714Y-89642381D01*
X165980952Y-90261429D02*
X166266667Y-90642381D01*
X166266667Y-89975714D02*
X165885714Y-90356667D01*
X166600000Y-89642381D02*
X167219048Y-89642381D01*
X166885714Y-90023333D01*
X167028572Y-90023333D01*
X167123810Y-90070952D01*
X167171429Y-90118571D01*
X167219048Y-90213810D01*
X167219048Y-90451905D01*
X167171429Y-90547143D01*
X167123810Y-90594762D01*
X167028572Y-90642381D01*
X166742857Y-90642381D01*
X166647619Y-90594762D01*
X166600000Y-90547143D01*
X153392381Y-108422381D02*
X152820952Y-108422381D01*
X153106666Y-108422381D02*
X153106666Y-107422381D01*
X153011428Y-107565238D01*
X152916190Y-107660476D01*
X152820952Y-107708095D01*
X154011428Y-107422381D02*
X154106667Y-107422381D01*
X154201905Y-107470000D01*
X154249524Y-107517619D01*
X154297143Y-107612857D01*
X154344762Y-107803333D01*
X154344762Y-108041429D01*
X154297143Y-108231905D01*
X154249524Y-108327143D01*
X154201905Y-108374762D01*
X154106667Y-108422381D01*
X154011428Y-108422381D01*
X153916190Y-108374762D01*
X153868571Y-108327143D01*
X153820952Y-108231905D01*
X153773333Y-108041429D01*
X153773333Y-107803333D01*
X153820952Y-107612857D01*
X153868571Y-107517619D01*
X153916190Y-107470000D01*
X154011428Y-107422381D01*
X154963809Y-107422381D02*
X155059048Y-107422381D01*
X155154286Y-107470000D01*
X155201905Y-107517619D01*
X155249524Y-107612857D01*
X155297143Y-107803333D01*
X155297143Y-108041429D01*
X155249524Y-108231905D01*
X155201905Y-108327143D01*
X155154286Y-108374762D01*
X155059048Y-108422381D01*
X154963809Y-108422381D01*
X154868571Y-108374762D01*
X154820952Y-108327143D01*
X154773333Y-108231905D01*
X154725714Y-108041429D01*
X154725714Y-107803333D01*
X154773333Y-107612857D01*
X154820952Y-107517619D01*
X154868571Y-107470000D01*
X154963809Y-107422381D01*
X155725714Y-108422381D02*
X155725714Y-107422381D01*
X155820952Y-108041429D02*
X156106667Y-108422381D01*
X156106667Y-107755714D02*
X155725714Y-108136667D01*
X156963810Y-107755714D02*
X156963810Y-108422381D01*
X156725714Y-107374762D02*
X156487619Y-108089048D01*
X157106667Y-108089048D01*
X149693334Y-117197143D02*
X149645715Y-117244762D01*
X149502858Y-117292381D01*
X149407620Y-117292381D01*
X149264762Y-117244762D01*
X149169524Y-117149524D01*
X149121905Y-117054286D01*
X149074286Y-116863810D01*
X149074286Y-116720952D01*
X149121905Y-116530476D01*
X149169524Y-116435238D01*
X149264762Y-116340000D01*
X149407620Y-116292381D01*
X149502858Y-116292381D01*
X149645715Y-116340000D01*
X149693334Y-116387619D01*
X150645715Y-117292381D02*
X150074286Y-117292381D01*
X150360000Y-117292381D02*
X150360000Y-116292381D01*
X150264762Y-116435238D01*
X150169524Y-116530476D01*
X150074286Y-116578095D01*
X205001905Y-122242381D02*
X205001905Y-121242381D01*
X205240000Y-121242381D01*
X205382858Y-121290000D01*
X205478096Y-121385238D01*
X205525715Y-121480476D01*
X205573334Y-121670952D01*
X205573334Y-121813810D01*
X205525715Y-122004286D01*
X205478096Y-122099524D01*
X205382858Y-122194762D01*
X205240000Y-122242381D01*
X205001905Y-122242381D01*
X206525715Y-122242381D02*
X205954286Y-122242381D01*
X206240000Y-122242381D02*
X206240000Y-121242381D01*
X206144762Y-121385238D01*
X206049524Y-121480476D01*
X205954286Y-121528095D01*
X208811905Y-122242381D02*
X208811905Y-121242381D01*
X209050000Y-121242381D01*
X209192858Y-121290000D01*
X209288096Y-121385238D01*
X209335715Y-121480476D01*
X209383334Y-121670952D01*
X209383334Y-121813810D01*
X209335715Y-122004286D01*
X209288096Y-122099524D01*
X209192858Y-122194762D01*
X209050000Y-122242381D01*
X208811905Y-122242381D01*
X209764286Y-121337619D02*
X209811905Y-121290000D01*
X209907143Y-121242381D01*
X210145239Y-121242381D01*
X210240477Y-121290000D01*
X210288096Y-121337619D01*
X210335715Y-121432857D01*
X210335715Y-121528095D01*
X210288096Y-121670952D01*
X209716667Y-122242381D01*
X210335715Y-122242381D01*
X212621905Y-122242381D02*
X212621905Y-121242381D01*
X212860000Y-121242381D01*
X213002858Y-121290000D01*
X213098096Y-121385238D01*
X213145715Y-121480476D01*
X213193334Y-121670952D01*
X213193334Y-121813810D01*
X213145715Y-122004286D01*
X213098096Y-122099524D01*
X213002858Y-122194762D01*
X212860000Y-122242381D01*
X212621905Y-122242381D01*
X213526667Y-121242381D02*
X214145715Y-121242381D01*
X213812381Y-121623333D01*
X213955239Y-121623333D01*
X214050477Y-121670952D01*
X214098096Y-121718571D01*
X214145715Y-121813810D01*
X214145715Y-122051905D01*
X214098096Y-122147143D01*
X214050477Y-122194762D01*
X213955239Y-122242381D01*
X213669524Y-122242381D01*
X213574286Y-122194762D01*
X213526667Y-122147143D01*
X208926667Y-139374762D02*
X209069524Y-139422381D01*
X209307620Y-139422381D01*
X209402858Y-139374762D01*
X209450477Y-139327143D01*
X209498096Y-139231905D01*
X209498096Y-139136667D01*
X209450477Y-139041429D01*
X209402858Y-138993810D01*
X209307620Y-138946190D01*
X209117143Y-138898571D01*
X209021905Y-138850952D01*
X208974286Y-138803333D01*
X208926667Y-138708095D01*
X208926667Y-138612857D01*
X208974286Y-138517619D01*
X209021905Y-138470000D01*
X209117143Y-138422381D01*
X209355239Y-138422381D01*
X209498096Y-138470000D01*
X209831429Y-138422381D02*
X210069524Y-139422381D01*
X210260001Y-138708095D01*
X210450477Y-139422381D01*
X210688572Y-138422381D01*
X211593334Y-139422381D02*
X211021905Y-139422381D01*
X211307619Y-139422381D02*
X211307619Y-138422381D01*
X211212381Y-138565238D01*
X211117143Y-138660476D01*
X211021905Y-138708095D01*
X165608095Y-86312381D02*
X165608095Y-87121905D01*
X165655714Y-87217143D01*
X165703333Y-87264762D01*
X165798571Y-87312381D01*
X165989048Y-87312381D01*
X166084286Y-87264762D01*
X166131905Y-87217143D01*
X166179524Y-87121905D01*
X166179524Y-86312381D01*
X167179524Y-87312381D02*
X166608095Y-87312381D01*
X166893809Y-87312381D02*
X166893809Y-86312381D01*
X166798571Y-86455238D01*
X166703333Y-86550476D01*
X166608095Y-86598095D01*
X210693095Y-110577381D02*
X210693095Y-111386905D01*
X210740714Y-111482143D01*
X210788333Y-111529762D01*
X210883571Y-111577381D01*
X211074048Y-111577381D01*
X211169286Y-111529762D01*
X211216905Y-111482143D01*
X211264524Y-111386905D01*
X211264524Y-110577381D01*
X211693095Y-110672619D02*
X211740714Y-110625000D01*
X211835952Y-110577381D01*
X212074048Y-110577381D01*
X212169286Y-110625000D01*
X212216905Y-110672619D01*
X212264524Y-110767857D01*
X212264524Y-110863095D01*
X212216905Y-111005952D01*
X211645476Y-111577381D01*
X212264524Y-111577381D01*
X179578095Y-167092381D02*
X179578095Y-167901905D01*
X179625714Y-167997143D01*
X179673333Y-168044762D01*
X179768571Y-168092381D01*
X179959048Y-168092381D01*
X180054286Y-168044762D01*
X180101905Y-167997143D01*
X180149524Y-167901905D01*
X180149524Y-167092381D01*
X181054286Y-167092381D02*
X180863809Y-167092381D01*
X180768571Y-167140000D01*
X180720952Y-167187619D01*
X180625714Y-167330476D01*
X180578095Y-167520952D01*
X180578095Y-167901905D01*
X180625714Y-167997143D01*
X180673333Y-168044762D01*
X180768571Y-168092381D01*
X180959048Y-168092381D01*
X181054286Y-168044762D01*
X181101905Y-167997143D01*
X181149524Y-167901905D01*
X181149524Y-167663810D01*
X181101905Y-167568571D01*
X181054286Y-167520952D01*
X180959048Y-167473333D01*
X180768571Y-167473333D01*
X180673333Y-167520952D01*
X180625714Y-167568571D01*
X180578095Y-167663810D01*
X213868095Y-65492381D02*
X213868095Y-66301905D01*
X213915714Y-66397143D01*
X213963333Y-66444762D01*
X214058571Y-66492381D01*
X214249048Y-66492381D01*
X214344286Y-66444762D01*
X214391905Y-66397143D01*
X214439524Y-66301905D01*
X214439524Y-65492381D01*
X214820476Y-65492381D02*
X215487143Y-65492381D01*
X215058571Y-66492381D01*
X145288095Y-65492381D02*
X145288095Y-66301905D01*
X145335714Y-66397143D01*
X145383333Y-66444762D01*
X145478571Y-66492381D01*
X145669048Y-66492381D01*
X145764286Y-66444762D01*
X145811905Y-66397143D01*
X145859524Y-66301905D01*
X145859524Y-65492381D01*
X146478571Y-65920952D02*
X146383333Y-65873333D01*
X146335714Y-65825714D01*
X146288095Y-65730476D01*
X146288095Y-65682857D01*
X146335714Y-65587619D01*
X146383333Y-65540000D01*
X146478571Y-65492381D01*
X146669048Y-65492381D01*
X146764286Y-65540000D01*
X146811905Y-65587619D01*
X146859524Y-65682857D01*
X146859524Y-65730476D01*
X146811905Y-65825714D01*
X146764286Y-65873333D01*
X146669048Y-65920952D01*
X146478571Y-65920952D01*
X146383333Y-65968571D01*
X146335714Y-66016190D01*
X146288095Y-66111429D01*
X146288095Y-66301905D01*
X146335714Y-66397143D01*
X146383333Y-66444762D01*
X146478571Y-66492381D01*
X146669048Y-66492381D01*
X146764286Y-66444762D01*
X146811905Y-66397143D01*
X146859524Y-66301905D01*
X146859524Y-66111429D01*
X146811905Y-66016190D01*
X146764286Y-65968571D01*
X146669048Y-65920952D01*
M02*
